<?xml version="1.0" encoding="utf-8" standalone="no"?>
<!DOCTYPE svg PUBLIC "-//W3C//DTD SVG 1.1//EN"
  "http://www.w3.org/Graphics/SVG/1.1/DTD/svg11.dtd">
<svg xmlns:xlink="http://www.w3.org/1999/xlink" width="864pt" height="576pt" viewBox="0 0 864 576" xmlns="http://www.w3.org/2000/svg" version="1.1">
 <metadata>
  <rdf:RDF xmlns:dc="http://purl.org/dc/elements/1.1/" xmlns:cc="http://creativecommons.org/ns#" xmlns:rdf="http://www.w3.org/1999/02/22-rdf-syntax-ns#">
   <cc:Work>
    <dc:type rdf:resource="http://purl.org/dc/dcmitype/StillImage"/>
    <dc:date>2024-09-24T11:43:31.547067</dc:date>
    <dc:format>image/svg+xml</dc:format>
    <dc:creator>
     <cc:Agent>
      <dc:title>Matplotlib v3.8.2, https://matplotlib.org/</dc:title>
     </cc:Agent>
    </dc:creator>
   </cc:Work>
  </rdf:RDF>
 </metadata>
 <defs>
  <style type="text/css">*{stroke-linejoin: round; stroke-linecap: butt}</style>
 </defs>
 <g id="figure_1">
  <g id="patch_1">
   <path d="M 0 576 
L 864 576 
L 864 0 
L 0 0 
z
" style="fill: #ffffff"/>
  </g>
  <g id="axes_1">
   <g id="patch_2">
    <path d="M 38.27 519.008383 
L 853.2 519.008383 
L 853.2 10.8 
L 38.27 10.8 
z
" style="fill: #ffffff"/>
   </g>
   <g id="patch_3">
    <path d="M 75.312273 519.008383 
L 90.431568 519.008383 
L 90.431568 35.000399 
L 75.312273 35.000399 
z
" clip-path="url(#p0488d8daf2)" style="fill: #1f77b4"/>
   </g>
   <g id="patch_4">
    <path d="M 226.505223 519.008383 
L 241.624518 519.008383 
L 241.624518 69.281147 
L 226.505223 69.281147 
z
" clip-path="url(#p0488d8daf2)" style="fill: #1f77b4"/>
   </g>
   <g id="patch_5">
    <path d="M 377.698173 519.008383 
L 392.817468 519.008383 
L 392.817468 78.505423 
L 377.698173 78.505423 
z
" clip-path="url(#p0488d8daf2)" style="fill: #1f77b4"/>
   </g>
   <g id="patch_6">
    <path d="M 528.891122 519.008383 
L 544.010417 519.008383 
L 544.010417 75.596397 
L 528.891122 75.596397 
z
" clip-path="url(#p0488d8daf2)" style="fill: #1f77b4"/>
   </g>
   <g id="patch_7">
    <path d="M 680.084072 519.008383 
L 695.203367 519.008383 
L 695.203367 48.072249 
L 680.084072 48.072249 
z
" clip-path="url(#p0488d8daf2)" style="fill: #1f77b4"/>
   </g>
   <g id="patch_8">
    <path d="M 90.431568 519.008383 
L 105.550863 519.008383 
L 105.550863 213.672549 
L 90.431568 213.672549 
z
" clip-path="url(#p0488d8daf2)" style="fill: #ff7f0e"/>
   </g>
   <g id="patch_9">
    <path d="M 241.624518 519.008383 
L 256.743813 519.008383 
L 256.743813 241.344793 
L 241.624518 241.344793 
z
" clip-path="url(#p0488d8daf2)" style="fill: #ff7f0e"/>
   </g>
   <g id="patch_10">
    <path d="M 392.817468 519.008383 
L 407.936763 519.008383 
L 407.936763 243.06719 
L 392.817468 243.06719 
z
" clip-path="url(#p0488d8daf2)" style="fill: #ff7f0e"/>
   </g>
   <g id="patch_11">
    <path d="M 544.010417 519.008383 
L 559.129712 519.008383 
L 559.129712 230.528186 
L 544.010417 230.528186 
z
" clip-path="url(#p0488d8daf2)" style="fill: #ff7f0e"/>
   </g>
   <g id="patch_12">
    <path d="M 695.203367 519.008383 
L 710.322662 519.008383 
L 710.322662 197.161535 
L 695.203367 197.161535 
z
" clip-path="url(#p0488d8daf2)" style="fill: #ff7f0e"/>
   </g>
   <g id="patch_13">
    <path d="M 105.550863 519.008383 
L 120.670158 519.008383 
L 120.670158 208.301046 
L 105.550863 208.301046 
z
" clip-path="url(#p0488d8daf2)" style="fill: #2ca02c"/>
   </g>
   <g id="patch_14">
    <path d="M 256.743813 519.008383 
L 271.863108 519.008383 
L 271.863108 238.181206 
L 256.743813 238.181206 
z
" clip-path="url(#p0488d8daf2)" style="fill: #2ca02c"/>
   </g>
   <g id="patch_15">
    <path d="M 407.936763 519.008383 
L 423.056058 519.008383 
L 423.056058 238.945212 
L 407.936763 238.945212 
z
" clip-path="url(#p0488d8daf2)" style="fill: #2ca02c"/>
   </g>
   <g id="patch_16">
    <path d="M 559.129712 519.008383 
L 574.249007 519.008383 
L 574.249007 227.405156 
L 559.129712 227.405156 
z
" clip-path="url(#p0488d8daf2)" style="fill: #2ca02c"/>
   </g>
   <g id="patch_17">
    <path d="M 710.322662 519.008383 
L 725.441957 519.008383 
L 725.441957 192.836738 
L 710.322662 192.836738 
z
" clip-path="url(#p0488d8daf2)" style="fill: #2ca02c"/>
   </g>
   <g id="patch_18">
    <path d="M 120.670158 519.008383 
L 135.789453 519.008383 
L 135.789453 202.720713 
L 120.670158 202.720713 
z
" clip-path="url(#p0488d8daf2)" style="fill: #d62728"/>
   </g>
   <g id="patch_19">
    <path d="M 271.863108 519.008383 
L 286.982403 519.008383 
L 286.982403 227.187007 
L 271.863108 227.187007 
z
" clip-path="url(#p0488d8daf2)" style="fill: #d62728"/>
   </g>
   <g id="patch_20">
    <path d="M 423.056058 519.008383 
L 438.175353 519.008383 
L 438.175353 229.587767 
L 423.056058 229.587767 
z
" clip-path="url(#p0488d8daf2)" style="fill: #d62728"/>
   </g>
   <g id="patch_21">
    <path d="M 574.249007 519.008383 
L 589.368302 519.008383 
L 589.368302 216.230524 
L 574.249007 216.230524 
z
" clip-path="url(#p0488d8daf2)" style="fill: #d62728"/>
   </g>
   <g id="patch_22">
    <path d="M 725.441957 519.008383 
L 740.561252 519.008383 
L 740.561252 182.484654 
L 725.441957 182.484654 
z
" clip-path="url(#p0488d8daf2)" style="fill: #d62728"/>
   </g>
   <g id="patch_23">
    <path d="M 135.789453 519.008383 
L 150.908748 519.008383 
L 150.908748 192.410029 
L 135.789453 192.410029 
z
" clip-path="url(#p0488d8daf2)" style="fill: #9467bd"/>
   </g>
   <g id="patch_24">
    <path d="M 286.982403 519.008383 
L 302.101698 519.008383 
L 302.101698 217.696874 
L 286.982403 217.696874 
z
" clip-path="url(#p0488d8daf2)" style="fill: #9467bd"/>
   </g>
   <g id="patch_25">
    <path d="M 438.175353 519.008383 
L 453.294647 519.008383 
L 453.294647 215.891377 
L 438.175353 215.891377 
z
" clip-path="url(#p0488d8daf2)" style="fill: #9467bd"/>
   </g>
   <g id="patch_26">
    <path d="M 589.368302 519.008383 
L 604.487597 519.008383 
L 604.487597 200.654332 
L 589.368302 200.654332 
z
" clip-path="url(#p0488d8daf2)" style="fill: #9467bd"/>
   </g>
   <g id="patch_27">
    <path d="M 740.561252 519.008383 
L 755.680547 519.008383 
L 755.680547 166.712583 
L 740.561252 166.712583 
z
" clip-path="url(#p0488d8daf2)" style="fill: #9467bd"/>
   </g>
   <g id="patch_28">
    <path d="M 150.908748 519.008383 
L 166.028043 519.008383 
L 166.028043 183.130916 
L 150.908748 183.130916 
z
" clip-path="url(#p0488d8daf2)" style="fill: #8c564b"/>
   </g>
   <g id="patch_29">
    <path d="M 302.101698 519.008383 
L 317.220993 519.008383 
L 317.220993 204.546821 
L 302.101698 204.546821 
z
" clip-path="url(#p0488d8daf2)" style="fill: #8c564b"/>
   </g>
   <g id="patch_30">
    <path d="M 453.294647 519.008383 
L 468.413942 519.008383 
L 468.413942 199.969126 
L 453.294647 199.969126 
z
" clip-path="url(#p0488d8daf2)" style="fill: #8c564b"/>
   </g>
   <g id="patch_31">
    <path d="M 604.487597 519.008383 
L 619.606892 519.008383 
L 619.606892 186.863158 
L 604.487597 186.863158 
z
" clip-path="url(#p0488d8daf2)" style="fill: #8c564b"/>
   </g>
   <g id="patch_32">
    <path d="M 755.680547 519.008383 
L 770.799842 519.008383 
L 770.799842 162.677993 
L 755.680547 162.677993 
z
" clip-path="url(#p0488d8daf2)" style="fill: #8c564b"/>
   </g>
   <g id="patch_33">
    <path d="M 166.028043 519.008383 
L 181.147338 519.008383 
L 181.147338 141.438044 
L 166.028043 141.438044 
z
" clip-path="url(#p0488d8daf2)" style="fill: #e377c2"/>
   </g>
   <g id="patch_34">
    <path d="M 317.220993 519.008383 
L 332.340288 519.008383 
L 332.340288 147.4652 
L 317.220993 147.4652 
z
" clip-path="url(#p0488d8daf2)" style="fill: #e377c2"/>
   </g>
   <g id="patch_35">
    <path d="M 468.413942 519.008383 
L 483.533237 519.008383 
L 483.533237 143.355185 
L 468.413942 143.355185 
z
" clip-path="url(#p0488d8daf2)" style="fill: #e377c2"/>
   </g>
   <g id="patch_36">
    <path d="M 619.606892 519.008383 
L 634.726187 519.008383 
L 634.726187 144.034678 
L 619.606892 144.034678 
z
" clip-path="url(#p0488d8daf2)" style="fill: #e377c2"/>
   </g>
   <g id="patch_37">
    <path d="M 770.799842 519.008383 
L 785.919137 519.008383 
L 785.919137 122.647971 
L 770.799842 122.647971 
z
" clip-path="url(#p0488d8daf2)" style="fill: #e377c2"/>
   </g>
   <g id="patch_38">
    <path d="M 181.147338 519.008383 
L 196.266633 519.008383 
L 196.266633 97.670245 
L 181.147338 97.670245 
z
" clip-path="url(#p0488d8daf2)" style="fill: #7f7f7f"/>
   </g>
   <g id="patch_39">
    <path d="M 332.340288 519.008383 
L 347.459583 519.008383 
L 347.459583 101.121553 
L 332.340288 101.121553 
z
" clip-path="url(#p0488d8daf2)" style="fill: #7f7f7f"/>
   </g>
   <g id="patch_40">
    <path d="M 483.533237 519.008383 
L 498.652532 519.008383 
L 498.652532 101.612469 
L 483.533237 101.612469 
z
" clip-path="url(#p0488d8daf2)" style="fill: #7f7f7f"/>
   </g>
   <g id="patch_41">
    <path d="M 634.726187 519.008383 
L 649.845482 519.008383 
L 649.845482 107.49608 
L 634.726187 107.49608 
z
" clip-path="url(#p0488d8daf2)" style="fill: #7f7f7f"/>
   </g>
   <g id="patch_42">
    <path d="M 785.919137 519.008383 
L 801.038432 519.008383 
L 801.038432 87.066001 
L 785.919137 87.066001 
z
" clip-path="url(#p0488d8daf2)" style="fill: #7f7f7f"/>
   </g>
   <g id="patch_43">
    <path d="M 196.266633 519.008383 
L 211.385928 519.008383 
L 211.385928 53.754666 
L 196.266633 53.754666 
z
" clip-path="url(#p0488d8daf2)" style="fill: #bcbd22"/>
   </g>
   <g id="patch_44">
    <path d="M 347.459583 519.008383 
L 362.578878 519.008383 
L 362.578878 59.088128 
L 347.459583 59.088128 
z
" clip-path="url(#p0488d8daf2)" style="fill: #bcbd22"/>
   </g>
   <g id="patch_45">
    <path d="M 498.652532 519.008383 
L 513.771827 519.008383 
L 513.771827 63.900182 
L 498.652532 63.900182 
z
" clip-path="url(#p0488d8daf2)" style="fill: #bcbd22"/>
   </g>
   <g id="patch_46">
    <path d="M 649.845482 519.008383 
L 664.964777 519.008383 
L 664.964777 68.540311 
L 649.845482 68.540311 
z
" clip-path="url(#p0488d8daf2)" style="fill: #bcbd22"/>
   </g>
   <g id="patch_47">
    <path d="M 801.038432 519.008383 
L 816.157727 519.008383 
L 816.157727 53.907793 
L 801.038432 53.907793 
z
" clip-path="url(#p0488d8daf2)" style="fill: #bcbd22"/>
   </g>
   <g id="matplotlib.axis_1">
    <g id="xtick_1">
     <g id="line2d_1">
      <defs>
       <path id="mc5f2e3cec4" d="M 0 0 
L 0 3.5 
" style="stroke: #000000; stroke-width: 0.8"/>
      </defs>
      <g>
       <use xlink:href="#mc5f2e3cec4" x="143.3491" y="519.008383" style="stroke: #000000; stroke-width: 0.8"/>
      </g>
     </g>
     <g id="text_1">
      <!-- 32 -->
      <g transform="translate(132.880605 540.379224) rotate(-45) scale(0.1 -0.1)">
       <defs>
        <path id="DejaVuSans-33" d="M 2597 2516 
Q 3050 2419 3304 2112 
Q 3559 1806 3559 1356 
Q 3559 666 3084 287 
Q 2609 -91 1734 -91 
Q 1441 -91 1130 -33 
Q 819 25 488 141 
L 488 750 
Q 750 597 1062 519 
Q 1375 441 1716 441 
Q 2309 441 2620 675 
Q 2931 909 2931 1356 
Q 2931 1769 2642 2001 
Q 2353 2234 1838 2234 
L 1294 2234 
L 1294 2753 
L 1863 2753 
Q 2328 2753 2575 2939 
Q 2822 3125 2822 3475 
Q 2822 3834 2567 4026 
Q 2313 4219 1838 4219 
Q 1578 4219 1281 4162 
Q 984 4106 628 3988 
L 628 4550 
Q 988 4650 1302 4700 
Q 1616 4750 1894 4750 
Q 2613 4750 3031 4423 
Q 3450 4097 3450 3541 
Q 3450 3153 3228 2886 
Q 3006 2619 2597 2516 
z
" transform="scale(0.015625)"/>
        <path id="DejaVuSans-32" d="M 1228 531 
L 3431 531 
L 3431 0 
L 469 0 
L 469 531 
Q 828 903 1448 1529 
Q 2069 2156 2228 2338 
Q 2531 2678 2651 2914 
Q 2772 3150 2772 3378 
Q 2772 3750 2511 3984 
Q 2250 4219 1831 4219 
Q 1534 4219 1204 4116 
Q 875 4013 500 3803 
L 500 4441 
Q 881 4594 1212 4672 
Q 1544 4750 1819 4750 
Q 2544 4750 2975 4387 
Q 3406 4025 3406 3419 
Q 3406 3131 3298 2873 
Q 3191 2616 2906 2266 
Q 2828 2175 2409 1742 
Q 1991 1309 1228 531 
z
" transform="scale(0.015625)"/>
       </defs>
       <use xlink:href="#DejaVuSans-33"/>
       <use xlink:href="#DejaVuSans-32" x="63.623047"/>
      </g>
     </g>
    </g>
    <g id="xtick_2">
     <g id="line2d_2">
      <g>
       <use xlink:href="#mc5f2e3cec4" x="294.54205" y="519.008383" style="stroke: #000000; stroke-width: 0.8"/>
      </g>
     </g>
     <g id="text_2">
      <!-- 128 -->
      <g transform="translate(279.574588 544.878191) rotate(-45) scale(0.1 -0.1)">
       <defs>
        <path id="DejaVuSans-31" d="M 794 531 
L 1825 531 
L 1825 4091 
L 703 3866 
L 703 4441 
L 1819 4666 
L 2450 4666 
L 2450 531 
L 3481 531 
L 3481 0 
L 794 0 
L 794 531 
z
" transform="scale(0.015625)"/>
        <path id="DejaVuSans-38" d="M 2034 2216 
Q 1584 2216 1326 1975 
Q 1069 1734 1069 1313 
Q 1069 891 1326 650 
Q 1584 409 2034 409 
Q 2484 409 2743 651 
Q 3003 894 3003 1313 
Q 3003 1734 2745 1975 
Q 2488 2216 2034 2216 
z
M 1403 2484 
Q 997 2584 770 2862 
Q 544 3141 544 3541 
Q 544 4100 942 4425 
Q 1341 4750 2034 4750 
Q 2731 4750 3128 4425 
Q 3525 4100 3525 3541 
Q 3525 3141 3298 2862 
Q 3072 2584 2669 2484 
Q 3125 2378 3379 2068 
Q 3634 1759 3634 1313 
Q 3634 634 3220 271 
Q 2806 -91 2034 -91 
Q 1263 -91 848 271 
Q 434 634 434 1313 
Q 434 1759 690 2068 
Q 947 2378 1403 2484 
z
M 1172 3481 
Q 1172 3119 1398 2916 
Q 1625 2713 2034 2713 
Q 2441 2713 2670 2916 
Q 2900 3119 2900 3481 
Q 2900 3844 2670 4047 
Q 2441 4250 2034 4250 
Q 1625 4250 1398 4047 
Q 1172 3844 1172 3481 
z
" transform="scale(0.015625)"/>
       </defs>
       <use xlink:href="#DejaVuSans-31"/>
       <use xlink:href="#DejaVuSans-32" x="63.623047"/>
       <use xlink:href="#DejaVuSans-38" x="127.246094"/>
      </g>
     </g>
    </g>
    <g id="xtick_3">
     <g id="line2d_3">
      <g>
       <use xlink:href="#mc5f2e3cec4" x="445.735" y="519.008383" style="stroke: #000000; stroke-width: 0.8"/>
      </g>
     </g>
     <g id="text_3">
      <!-- 256 -->
      <g transform="translate(430.767538 544.878191) rotate(-45) scale(0.1 -0.1)">
       <defs>
        <path id="DejaVuSans-35" d="M 691 4666 
L 3169 4666 
L 3169 4134 
L 1269 4134 
L 1269 2991 
Q 1406 3038 1543 3061 
Q 1681 3084 1819 3084 
Q 2600 3084 3056 2656 
Q 3513 2228 3513 1497 
Q 3513 744 3044 326 
Q 2575 -91 1722 -91 
Q 1428 -91 1123 -41 
Q 819 9 494 109 
L 494 744 
Q 775 591 1075 516 
Q 1375 441 1709 441 
Q 2250 441 2565 725 
Q 2881 1009 2881 1497 
Q 2881 1984 2565 2268 
Q 2250 2553 1709 2553 
Q 1456 2553 1204 2497 
Q 953 2441 691 2322 
L 691 4666 
z
" transform="scale(0.015625)"/>
        <path id="DejaVuSans-36" d="M 2113 2584 
Q 1688 2584 1439 2293 
Q 1191 2003 1191 1497 
Q 1191 994 1439 701 
Q 1688 409 2113 409 
Q 2538 409 2786 701 
Q 3034 994 3034 1497 
Q 3034 2003 2786 2293 
Q 2538 2584 2113 2584 
z
M 3366 4563 
L 3366 3988 
Q 3128 4100 2886 4159 
Q 2644 4219 2406 4219 
Q 1781 4219 1451 3797 
Q 1122 3375 1075 2522 
Q 1259 2794 1537 2939 
Q 1816 3084 2150 3084 
Q 2853 3084 3261 2657 
Q 3669 2231 3669 1497 
Q 3669 778 3244 343 
Q 2819 -91 2113 -91 
Q 1303 -91 875 529 
Q 447 1150 447 2328 
Q 447 3434 972 4092 
Q 1497 4750 2381 4750 
Q 2619 4750 2861 4703 
Q 3103 4656 3366 4563 
z
" transform="scale(0.015625)"/>
       </defs>
       <use xlink:href="#DejaVuSans-32"/>
       <use xlink:href="#DejaVuSans-35" x="63.623047"/>
       <use xlink:href="#DejaVuSans-36" x="127.246094"/>
      </g>
     </g>
    </g>
    <g id="xtick_4">
     <g id="line2d_4">
      <g>
       <use xlink:href="#mc5f2e3cec4" x="596.92795" y="519.008383" style="stroke: #000000; stroke-width: 0.8"/>
      </g>
     </g>
     <g id="text_4">
      <!-- 512 -->
      <g transform="translate(581.960488 544.878191) rotate(-45) scale(0.1 -0.1)">
       <use xlink:href="#DejaVuSans-35"/>
       <use xlink:href="#DejaVuSans-31" x="63.623047"/>
       <use xlink:href="#DejaVuSans-32" x="127.246094"/>
      </g>
     </g>
    </g>
    <g id="xtick_5">
     <g id="line2d_5">
      <g>
       <use xlink:href="#mc5f2e3cec4" x="748.1209" y="519.008383" style="stroke: #000000; stroke-width: 0.8"/>
      </g>
     </g>
     <g id="text_5">
      <!-- 1024 -->
      <g transform="translate(728.654471 549.377157) rotate(-45) scale(0.1 -0.1)">
       <defs>
        <path id="DejaVuSans-30" d="M 2034 4250 
Q 1547 4250 1301 3770 
Q 1056 3291 1056 2328 
Q 1056 1369 1301 889 
Q 1547 409 2034 409 
Q 2525 409 2770 889 
Q 3016 1369 3016 2328 
Q 3016 3291 2770 3770 
Q 2525 4250 2034 4250 
z
M 2034 4750 
Q 2819 4750 3233 4129 
Q 3647 3509 3647 2328 
Q 3647 1150 3233 529 
Q 2819 -91 2034 -91 
Q 1250 -91 836 529 
Q 422 1150 422 2328 
Q 422 3509 836 4129 
Q 1250 4750 2034 4750 
z
" transform="scale(0.015625)"/>
        <path id="DejaVuSans-34" d="M 2419 4116 
L 825 1625 
L 2419 1625 
L 2419 4116 
z
M 2253 4666 
L 3047 4666 
L 3047 1625 
L 3713 1625 
L 3713 1100 
L 3047 1100 
L 3047 0 
L 2419 0 
L 2419 1100 
L 313 1100 
L 313 1709 
L 2253 4666 
z
" transform="scale(0.015625)"/>
       </defs>
       <use xlink:href="#DejaVuSans-31"/>
       <use xlink:href="#DejaVuSans-30" x="63.623047"/>
       <use xlink:href="#DejaVuSans-32" x="127.246094"/>
       <use xlink:href="#DejaVuSans-34" x="190.869141"/>
      </g>
     </g>
    </g>
    <g id="text_6">
     <!-- batch_sizes -->
     <g transform="translate(416.819375 562.446156) scale(0.1 -0.1)">
      <defs>
       <path id="DejaVuSans-62" d="M 3116 1747 
Q 3116 2381 2855 2742 
Q 2594 3103 2138 3103 
Q 1681 3103 1420 2742 
Q 1159 2381 1159 1747 
Q 1159 1113 1420 752 
Q 1681 391 2138 391 
Q 2594 391 2855 752 
Q 3116 1113 3116 1747 
z
M 1159 2969 
Q 1341 3281 1617 3432 
Q 1894 3584 2278 3584 
Q 2916 3584 3314 3078 
Q 3713 2572 3713 1747 
Q 3713 922 3314 415 
Q 2916 -91 2278 -91 
Q 1894 -91 1617 61 
Q 1341 213 1159 525 
L 1159 0 
L 581 0 
L 581 4863 
L 1159 4863 
L 1159 2969 
z
" transform="scale(0.015625)"/>
       <path id="DejaVuSans-61" d="M 2194 1759 
Q 1497 1759 1228 1600 
Q 959 1441 959 1056 
Q 959 750 1161 570 
Q 1363 391 1709 391 
Q 2188 391 2477 730 
Q 2766 1069 2766 1631 
L 2766 1759 
L 2194 1759 
z
M 3341 1997 
L 3341 0 
L 2766 0 
L 2766 531 
Q 2569 213 2275 61 
Q 1981 -91 1556 -91 
Q 1019 -91 701 211 
Q 384 513 384 1019 
Q 384 1609 779 1909 
Q 1175 2209 1959 2209 
L 2766 2209 
L 2766 2266 
Q 2766 2663 2505 2880 
Q 2244 3097 1772 3097 
Q 1472 3097 1187 3025 
Q 903 2953 641 2809 
L 641 3341 
Q 956 3463 1253 3523 
Q 1550 3584 1831 3584 
Q 2591 3584 2966 3190 
Q 3341 2797 3341 1997 
z
" transform="scale(0.015625)"/>
       <path id="DejaVuSans-74" d="M 1172 4494 
L 1172 3500 
L 2356 3500 
L 2356 3053 
L 1172 3053 
L 1172 1153 
Q 1172 725 1289 603 
Q 1406 481 1766 481 
L 2356 481 
L 2356 0 
L 1766 0 
Q 1100 0 847 248 
Q 594 497 594 1153 
L 594 3053 
L 172 3053 
L 172 3500 
L 594 3500 
L 594 4494 
L 1172 4494 
z
" transform="scale(0.015625)"/>
       <path id="DejaVuSans-63" d="M 3122 3366 
L 3122 2828 
Q 2878 2963 2633 3030 
Q 2388 3097 2138 3097 
Q 1578 3097 1268 2742 
Q 959 2388 959 1747 
Q 959 1106 1268 751 
Q 1578 397 2138 397 
Q 2388 397 2633 464 
Q 2878 531 3122 666 
L 3122 134 
Q 2881 22 2623 -34 
Q 2366 -91 2075 -91 
Q 1284 -91 818 406 
Q 353 903 353 1747 
Q 353 2603 823 3093 
Q 1294 3584 2113 3584 
Q 2378 3584 2631 3529 
Q 2884 3475 3122 3366 
z
" transform="scale(0.015625)"/>
       <path id="DejaVuSans-68" d="M 3513 2113 
L 3513 0 
L 2938 0 
L 2938 2094 
Q 2938 2591 2744 2837 
Q 2550 3084 2163 3084 
Q 1697 3084 1428 2787 
Q 1159 2491 1159 1978 
L 1159 0 
L 581 0 
L 581 4863 
L 1159 4863 
L 1159 2956 
Q 1366 3272 1645 3428 
Q 1925 3584 2291 3584 
Q 2894 3584 3203 3211 
Q 3513 2838 3513 2113 
z
" transform="scale(0.015625)"/>
       <path id="DejaVuSans-5f" d="M 3263 -1063 
L 3263 -1509 
L -63 -1509 
L -63 -1063 
L 3263 -1063 
z
" transform="scale(0.015625)"/>
       <path id="DejaVuSans-73" d="M 2834 3397 
L 2834 2853 
Q 2591 2978 2328 3040 
Q 2066 3103 1784 3103 
Q 1356 3103 1142 2972 
Q 928 2841 928 2578 
Q 928 2378 1081 2264 
Q 1234 2150 1697 2047 
L 1894 2003 
Q 2506 1872 2764 1633 
Q 3022 1394 3022 966 
Q 3022 478 2636 193 
Q 2250 -91 1575 -91 
Q 1294 -91 989 -36 
Q 684 19 347 128 
L 347 722 
Q 666 556 975 473 
Q 1284 391 1588 391 
Q 1994 391 2212 530 
Q 2431 669 2431 922 
Q 2431 1156 2273 1281 
Q 2116 1406 1581 1522 
L 1381 1569 
Q 847 1681 609 1914 
Q 372 2147 372 2553 
Q 372 3047 722 3315 
Q 1072 3584 1716 3584 
Q 2034 3584 2315 3537 
Q 2597 3491 2834 3397 
z
" transform="scale(0.015625)"/>
       <path id="DejaVuSans-69" d="M 603 3500 
L 1178 3500 
L 1178 0 
L 603 0 
L 603 3500 
z
M 603 4863 
L 1178 4863 
L 1178 4134 
L 603 4134 
L 603 4863 
z
" transform="scale(0.015625)"/>
       <path id="DejaVuSans-7a" d="M 353 3500 
L 3084 3500 
L 3084 2975 
L 922 459 
L 3084 459 
L 3084 0 
L 275 0 
L 275 525 
L 2438 3041 
L 353 3041 
L 353 3500 
z
" transform="scale(0.015625)"/>
       <path id="DejaVuSans-65" d="M 3597 1894 
L 3597 1613 
L 953 1613 
Q 991 1019 1311 708 
Q 1631 397 2203 397 
Q 2534 397 2845 478 
Q 3156 559 3463 722 
L 3463 178 
Q 3153 47 2828 -22 
Q 2503 -91 2169 -91 
Q 1331 -91 842 396 
Q 353 884 353 1716 
Q 353 2575 817 3079 
Q 1281 3584 2069 3584 
Q 2775 3584 3186 3129 
Q 3597 2675 3597 1894 
z
M 3022 2063 
Q 3016 2534 2758 2815 
Q 2500 3097 2075 3097 
Q 1594 3097 1305 2825 
Q 1016 2553 972 2059 
L 3022 2063 
z
" transform="scale(0.015625)"/>
      </defs>
      <use xlink:href="#DejaVuSans-62"/>
      <use xlink:href="#DejaVuSans-61" x="63.476562"/>
      <use xlink:href="#DejaVuSans-74" x="124.755859"/>
      <use xlink:href="#DejaVuSans-63" x="163.964844"/>
      <use xlink:href="#DejaVuSans-68" x="218.945312"/>
      <use xlink:href="#DejaVuSans-5f" x="282.324219"/>
      <use xlink:href="#DejaVuSans-73" x="332.324219"/>
      <use xlink:href="#DejaVuSans-69" x="384.423828"/>
      <use xlink:href="#DejaVuSans-7a" x="412.207031"/>
      <use xlink:href="#DejaVuSans-65" x="464.697266"/>
      <use xlink:href="#DejaVuSans-73" x="526.220703"/>
     </g>
    </g>
   </g>
   <g id="matplotlib.axis_2">
    <g id="ytick_1">
     <g id="line2d_6">
      <defs>
       <path id="m783ff8fe25" d="M 0 0 
L -3.5 0 
" style="stroke: #000000; stroke-width: 0.8"/>
      </defs>
      <g>
       <use xlink:href="#m783ff8fe25" x="38.27" y="519.008383" style="stroke: #000000; stroke-width: 0.8"/>
      </g>
     </g>
     <g id="text_7">
      <!-- 0 -->
      <g transform="translate(24.9075 522.807602) scale(0.1 -0.1)">
       <use xlink:href="#DejaVuSans-30"/>
      </g>
     </g>
    </g>
    <g id="ytick_2">
     <g id="line2d_7">
      <g>
       <use xlink:href="#m783ff8fe25" x="38.27" y="415.951181" style="stroke: #000000; stroke-width: 0.8"/>
      </g>
     </g>
     <g id="text_8">
      <!-- 1 -->
      <g transform="translate(24.9075 419.750399) scale(0.1 -0.1)">
       <use xlink:href="#DejaVuSans-31"/>
      </g>
     </g>
    </g>
    <g id="ytick_3">
     <g id="line2d_8">
      <g>
       <use xlink:href="#m783ff8fe25" x="38.27" y="312.893978" style="stroke: #000000; stroke-width: 0.8"/>
      </g>
     </g>
     <g id="text_9">
      <!-- 2 -->
      <g transform="translate(24.9075 316.693197) scale(0.1 -0.1)">
       <use xlink:href="#DejaVuSans-32"/>
      </g>
     </g>
    </g>
    <g id="ytick_4">
     <g id="line2d_9">
      <g>
       <use xlink:href="#m783ff8fe25" x="38.27" y="209.836775" style="stroke: #000000; stroke-width: 0.8"/>
      </g>
     </g>
     <g id="text_10">
      <!-- 3 -->
      <g transform="translate(24.9075 213.635994) scale(0.1 -0.1)">
       <use xlink:href="#DejaVuSans-33"/>
      </g>
     </g>
    </g>
    <g id="ytick_5">
     <g id="line2d_10">
      <g>
       <use xlink:href="#m783ff8fe25" x="38.27" y="106.779573" style="stroke: #000000; stroke-width: 0.8"/>
      </g>
     </g>
     <g id="text_11">
      <!-- 4 -->
      <g transform="translate(24.9075 110.578792) scale(0.1 -0.1)">
       <use xlink:href="#DejaVuSans-34"/>
      </g>
     </g>
    </g>
    <g id="text_12">
     <!-- Time in seconds -->
     <g transform="translate(18.827813 305.311223) rotate(-90) scale(0.1 -0.1)">
      <defs>
       <path id="DejaVuSans-54" d="M -19 4666 
L 3928 4666 
L 3928 4134 
L 2272 4134 
L 2272 0 
L 1638 0 
L 1638 4134 
L -19 4134 
L -19 4666 
z
" transform="scale(0.015625)"/>
       <path id="DejaVuSans-6d" d="M 3328 2828 
Q 3544 3216 3844 3400 
Q 4144 3584 4550 3584 
Q 5097 3584 5394 3201 
Q 5691 2819 5691 2113 
L 5691 0 
L 5113 0 
L 5113 2094 
Q 5113 2597 4934 2840 
Q 4756 3084 4391 3084 
Q 3944 3084 3684 2787 
Q 3425 2491 3425 1978 
L 3425 0 
L 2847 0 
L 2847 2094 
Q 2847 2600 2669 2842 
Q 2491 3084 2119 3084 
Q 1678 3084 1418 2786 
Q 1159 2488 1159 1978 
L 1159 0 
L 581 0 
L 581 3500 
L 1159 3500 
L 1159 2956 
Q 1356 3278 1631 3431 
Q 1906 3584 2284 3584 
Q 2666 3584 2933 3390 
Q 3200 3197 3328 2828 
z
" transform="scale(0.015625)"/>
       <path id="DejaVuSans-20" transform="scale(0.015625)"/>
       <path id="DejaVuSans-6e" d="M 3513 2113 
L 3513 0 
L 2938 0 
L 2938 2094 
Q 2938 2591 2744 2837 
Q 2550 3084 2163 3084 
Q 1697 3084 1428 2787 
Q 1159 2491 1159 1978 
L 1159 0 
L 581 0 
L 581 3500 
L 1159 3500 
L 1159 2956 
Q 1366 3272 1645 3428 
Q 1925 3584 2291 3584 
Q 2894 3584 3203 3211 
Q 3513 2838 3513 2113 
z
" transform="scale(0.015625)"/>
       <path id="DejaVuSans-6f" d="M 1959 3097 
Q 1497 3097 1228 2736 
Q 959 2375 959 1747 
Q 959 1119 1226 758 
Q 1494 397 1959 397 
Q 2419 397 2687 759 
Q 2956 1122 2956 1747 
Q 2956 2369 2687 2733 
Q 2419 3097 1959 3097 
z
M 1959 3584 
Q 2709 3584 3137 3096 
Q 3566 2609 3566 1747 
Q 3566 888 3137 398 
Q 2709 -91 1959 -91 
Q 1206 -91 779 398 
Q 353 888 353 1747 
Q 353 2609 779 3096 
Q 1206 3584 1959 3584 
z
" transform="scale(0.015625)"/>
       <path id="DejaVuSans-64" d="M 2906 2969 
L 2906 4863 
L 3481 4863 
L 3481 0 
L 2906 0 
L 2906 525 
Q 2725 213 2448 61 
Q 2172 -91 1784 -91 
Q 1150 -91 751 415 
Q 353 922 353 1747 
Q 353 2572 751 3078 
Q 1150 3584 1784 3584 
Q 2172 3584 2448 3432 
Q 2725 3281 2906 2969 
z
M 947 1747 
Q 947 1113 1208 752 
Q 1469 391 1925 391 
Q 2381 391 2643 752 
Q 2906 1113 2906 1747 
Q 2906 2381 2643 2742 
Q 2381 3103 1925 3103 
Q 1469 3103 1208 2742 
Q 947 2381 947 1747 
z
" transform="scale(0.015625)"/>
      </defs>
      <use xlink:href="#DejaVuSans-54"/>
      <use xlink:href="#DejaVuSans-69" x="57.958984"/>
      <use xlink:href="#DejaVuSans-6d" x="85.742188"/>
      <use xlink:href="#DejaVuSans-65" x="183.154297"/>
      <use xlink:href="#DejaVuSans-20" x="244.677734"/>
      <use xlink:href="#DejaVuSans-69" x="276.464844"/>
      <use xlink:href="#DejaVuSans-6e" x="304.248047"/>
      <use xlink:href="#DejaVuSans-20" x="367.626953"/>
      <use xlink:href="#DejaVuSans-73" x="399.414062"/>
      <use xlink:href="#DejaVuSans-65" x="451.513672"/>
      <use xlink:href="#DejaVuSans-63" x="513.037109"/>
      <use xlink:href="#DejaVuSans-6f" x="568.017578"/>
      <use xlink:href="#DejaVuSans-6e" x="629.199219"/>
      <use xlink:href="#DejaVuSans-64" x="692.578125"/>
      <use xlink:href="#DejaVuSans-73" x="756.054688"/>
     </g>
    </g>
   </g>
   <g id="patch_48">
    <path d="M 38.27 519.008383 
L 38.27 10.8 
" style="fill: none; stroke: #000000; stroke-width: 0.8; stroke-linejoin: miter; stroke-linecap: square"/>
   </g>
   <g id="patch_49">
    <path d="M 853.2 519.008383 
L 853.2 10.8 
" style="fill: none; stroke: #000000; stroke-width: 0.8; stroke-linejoin: miter; stroke-linecap: square"/>
   </g>
   <g id="patch_50">
    <path d="M 38.27 519.008383 
L 853.2 519.008383 
" style="fill: none; stroke: #000000; stroke-width: 0.8; stroke-linejoin: miter; stroke-linecap: square"/>
   </g>
   <g id="patch_51">
    <path d="M 38.27 10.8 
L 853.2 10.8 
" style="fill: none; stroke: #000000; stroke-width: 0.8; stroke-linejoin: miter; stroke-linecap: square"/>
   </g>
   <g id="legend_1">
    <g id="patch_52">
     <path d="M 45.27 150.903125 
L 89.995 150.903125 
Q 91.995 150.903125 91.995 148.903125 
L 91.995 17.8 
Q 91.995 15.8 89.995 15.8 
L 45.27 15.8 
Q 43.27 15.8 43.27 17.8 
L 43.27 148.903125 
Q 43.27 150.903125 45.27 150.903125 
z
" style="fill: #ffffff; opacity: 0.8; stroke: #cccccc; stroke-linejoin: miter"/>
    </g>
    <g id="patch_53">
     <path d="M 47.27 27.398438 
L 67.27 27.398438 
L 67.27 20.398438 
L 47.27 20.398438 
z
" style="fill: #1f77b4"/>
    </g>
    <g id="text_13">
     <!-- 1 -->
     <g transform="translate(75.27 27.398438) scale(0.1 -0.1)">
      <use xlink:href="#DejaVuSans-31"/>
     </g>
    </g>
    <g id="patch_54">
     <path d="M 47.27 42.076563 
L 67.27 42.076563 
L 67.27 35.076563 
L 47.27 35.076563 
z
" style="fill: #ff7f0e"/>
    </g>
    <g id="text_14">
     <!-- 2 -->
     <g transform="translate(75.27 42.076563) scale(0.1 -0.1)">
      <use xlink:href="#DejaVuSans-32"/>
     </g>
    </g>
    <g id="patch_55">
     <path d="M 47.27 56.754688 
L 67.27 56.754688 
L 67.27 49.754688 
L 47.27 49.754688 
z
" style="fill: #2ca02c"/>
    </g>
    <g id="text_15">
     <!-- 4 -->
     <g transform="translate(75.27 56.754688) scale(0.1 -0.1)">
      <use xlink:href="#DejaVuSans-34"/>
     </g>
    </g>
    <g id="patch_56">
     <path d="M 47.27 71.432813 
L 67.27 71.432813 
L 67.27 64.432813 
L 47.27 64.432813 
z
" style="fill: #d62728"/>
    </g>
    <g id="text_16">
     <!-- 8 -->
     <g transform="translate(75.27 71.432813) scale(0.1 -0.1)">
      <use xlink:href="#DejaVuSans-38"/>
     </g>
    </g>
    <g id="patch_57">
     <path d="M 47.27 86.110938 
L 67.27 86.110938 
L 67.27 79.110938 
L 47.27 79.110938 
z
" style="fill: #9467bd"/>
    </g>
    <g id="text_17">
     <!-- 12 -->
     <g transform="translate(75.27 86.110938) scale(0.1 -0.1)">
      <use xlink:href="#DejaVuSans-31"/>
      <use xlink:href="#DejaVuSans-32" x="63.623047"/>
     </g>
    </g>
    <g id="patch_58">
     <path d="M 47.27 100.789063 
L 67.27 100.789063 
L 67.27 93.789063 
L 47.27 93.789063 
z
" style="fill: #8c564b"/>
    </g>
    <g id="text_18">
     <!-- 16 -->
     <g transform="translate(75.27 100.789063) scale(0.1 -0.1)">
      <use xlink:href="#DejaVuSans-31"/>
      <use xlink:href="#DejaVuSans-36" x="63.623047"/>
     </g>
    </g>
    <g id="patch_59">
     <path d="M 47.27 115.467188 
L 67.27 115.467188 
L 67.27 108.467188 
L 47.27 108.467188 
z
" style="fill: #e377c2"/>
    </g>
    <g id="text_19">
     <!-- 32 -->
     <g transform="translate(75.27 115.467188) scale(0.1 -0.1)">
      <use xlink:href="#DejaVuSans-33"/>
      <use xlink:href="#DejaVuSans-32" x="63.623047"/>
     </g>
    </g>
    <g id="patch_60">
     <path d="M 47.27 130.145313 
L 67.27 130.145313 
L 67.27 123.145313 
L 47.27 123.145313 
z
" style="fill: #7f7f7f"/>
    </g>
    <g id="text_20">
     <!-- 48 -->
     <g transform="translate(75.27 130.145313) scale(0.1 -0.1)">
      <use xlink:href="#DejaVuSans-34"/>
      <use xlink:href="#DejaVuSans-38" x="63.623047"/>
     </g>
    </g>
    <g id="patch_61">
     <path d="M 47.27 144.823438 
L 67.27 144.823438 
L 67.27 137.823438 
L 47.27 137.823438 
z
" style="fill: #bcbd22"/>
    </g>
    <g id="text_21">
     <!-- 64 -->
     <g transform="translate(75.27 144.823438) scale(0.1 -0.1)">
      <use xlink:href="#DejaVuSans-36"/>
      <use xlink:href="#DejaVuSans-34" x="63.623047"/>
     </g>
    </g>
   </g>
  </g>
 </g>
 <defs>
  <clipPath id="p0488d8daf2">
   <rect x="38.27" y="10.8" width="814.93" height="508.208383"/>
  </clipPath>
 </defs>
</svg>
