<?xml version="1.0" encoding="utf-8" standalone="no"?>
<!DOCTYPE svg PUBLIC "-//W3C//DTD SVG 1.1//EN"
  "http://www.w3.org/Graphics/SVG/1.1/DTD/svg11.dtd">
<svg xmlns:xlink="http://www.w3.org/1999/xlink" width="864pt" height="576pt" viewBox="0 0 864 576" xmlns="http://www.w3.org/2000/svg" version="1.1">
 <metadata>
  <rdf:RDF xmlns:dc="http://purl.org/dc/elements/1.1/" xmlns:cc="http://creativecommons.org/ns#" xmlns:rdf="http://www.w3.org/1999/02/22-rdf-syntax-ns#">
   <cc:Work>
    <dc:type rdf:resource="http://purl.org/dc/dcmitype/StillImage"/>
    <dc:date>2024-09-13T15:50:30.021947</dc:date>
    <dc:format>image/svg+xml</dc:format>
    <dc:creator>
     <cc:Agent>
      <dc:title>Matplotlib v3.8.2, https://matplotlib.org/</dc:title>
     </cc:Agent>
    </dc:creator>
   </cc:Work>
  </rdf:RDF>
 </metadata>
 <defs>
  <style type="text/css">*{stroke-linejoin: round; stroke-linecap: butt}</style>
 </defs>
 <g id="figure_1">
  <g id="patch_1">
   <path d="M 0 576 
L 864 576 
L 864 0 
L 0 0 
z
" style="fill: #ffffff"/>
  </g>
  <g id="axes_1">
   <g id="patch_2">
    <path d="M 50.87 489.127422 
L 853.2 489.127422 
L 853.2 10.8 
L 50.87 10.8 
z
" style="fill: #ffffff"/>
   </g>
   <g id="patch_3">
    <path d="M 87.339545 489.127422 
L 93.468881 489.127422 
L 93.468881 421.025836 
L 87.339545 421.025836 
z
" clip-path="url(#p2d623c40fc)" style="fill: #1f77b4"/>
   </g>
   <g id="patch_4">
    <path d="M 148.632899 489.127422 
L 154.762235 489.127422 
L 154.762235 439.71426 
L 148.632899 439.71426 
z
" clip-path="url(#p2d623c40fc)" style="fill: #1f77b4"/>
   </g>
   <g id="patch_5">
    <path d="M 209.926253 489.127422 
L 216.055588 489.127422 
L 216.055588 456.317305 
L 209.926253 456.317305 
z
" clip-path="url(#p2d623c40fc)" style="fill: #1f77b4"/>
   </g>
   <g id="patch_6">
    <path d="M 271.219607 489.127422 
L 277.348942 489.127422 
L 277.348942 467.582 
L 271.219607 467.582 
z
" clip-path="url(#p2d623c40fc)" style="fill: #1f77b4"/>
   </g>
   <g id="patch_7">
    <path d="M 332.51296 489.127422 
L 338.642296 489.127422 
L 338.642296 468.129149 
L 332.51296 468.129149 
z
" clip-path="url(#p2d623c40fc)" style="fill: #1f77b4"/>
   </g>
   <g id="patch_8">
    <path d="M 393.806314 489.127422 
L 399.935649 489.127422 
L 399.935649 468.180716 
L 393.806314 468.180716 
z
" clip-path="url(#p2d623c40fc)" style="fill: #1f77b4"/>
   </g>
   <g id="patch_9">
    <path d="M 455.099668 489.127422 
L 461.229003 489.127422 
L 461.229003 453.426419 
L 455.099668 453.426419 
z
" clip-path="url(#p2d623c40fc)" style="fill: #1f77b4"/>
   </g>
   <g id="patch_10">
    <path d="M 516.393021 489.127422 
L 522.522357 489.127422 
L 522.522357 387.932864 
L 516.393021 387.932864 
z
" clip-path="url(#p2d623c40fc)" style="fill: #1f77b4"/>
   </g>
   <g id="patch_11">
    <path d="M 577.686375 489.127422 
L 583.81571 489.127422 
L 583.81571 352.157588 
L 577.686375 352.157588 
z
" clip-path="url(#p2d623c40fc)" style="fill: #1f77b4"/>
   </g>
   <g id="patch_12">
    <path d="M 638.979729 489.127422 
L 645.109064 489.127422 
L 645.109064 43.304952 
L 638.979729 43.304952 
z
" clip-path="url(#p2d623c40fc)" style="fill: #1f77b4"/>
   </g>
   <g id="patch_13">
    <path d="M 700.273083 489.127422 
L 706.402418 489.127422 
L 706.402418 452.02829 
L 700.273083 452.02829 
z
" clip-path="url(#p2d623c40fc)" style="fill: #1f77b4"/>
   </g>
   <g id="patch_14">
    <path d="M 761.566436 489.127422 
L 767.695772 489.127422 
L 767.695772 381.526482 
L 761.566436 381.526482 
z
" clip-path="url(#p2d623c40fc)" style="fill: #1f77b4"/>
   </g>
   <g id="patch_15">
    <path d="M 93.468881 489.127422 
L 99.598216 489.127422 
L 99.598216 420.817082 
L 93.468881 420.817082 
z
" clip-path="url(#p2d623c40fc)" style="fill: #ff7f0e"/>
   </g>
   <g id="patch_16">
    <path d="M 154.762235 489.127422 
L 160.89157 489.127422 
L 160.89157 439.545997 
L 154.762235 439.545997 
z
" clip-path="url(#p2d623c40fc)" style="fill: #ff7f0e"/>
   </g>
   <g id="patch_17">
    <path d="M 216.055588 489.127422 
L 222.184924 489.127422 
L 222.184924 456.102321 
L 216.055588 456.102321 
z
" clip-path="url(#p2d623c40fc)" style="fill: #ff7f0e"/>
   </g>
   <g id="patch_18">
    <path d="M 277.348942 489.127422 
L 283.478277 489.127422 
L 283.478277 468.785165 
L 277.348942 468.785165 
z
" clip-path="url(#p2d623c40fc)" style="fill: #ff7f0e"/>
   </g>
   <g id="patch_19">
    <path d="M 338.642296 489.127422 
L 344.771631 489.127422 
L 344.771631 474.776797 
L 338.642296 474.776797 
z
" clip-path="url(#p2d623c40fc)" style="fill: #ff7f0e"/>
   </g>
   <g id="patch_20">
    <path d="M 399.935649 489.127422 
L 406.064985 489.127422 
L 406.064985 471.74801 
L 399.935649 471.74801 
z
" clip-path="url(#p2d623c40fc)" style="fill: #ff7f0e"/>
   </g>
   <g id="patch_21">
    <path d="M 461.229003 489.127422 
L 467.358338 489.127422 
L 467.358338 453.181667 
L 461.229003 453.181667 
z
" clip-path="url(#p2d623c40fc)" style="fill: #ff7f0e"/>
   </g>
   <g id="patch_22">
    <path d="M 522.522357 489.127422 
L 528.651692 489.127422 
L 528.651692 387.319938 
L 522.522357 387.319938 
z
" clip-path="url(#p2d623c40fc)" style="fill: #ff7f0e"/>
   </g>
   <g id="patch_23">
    <path d="M 583.81571 489.127422 
L 589.945046 489.127422 
L 589.945046 351.511265 
L 583.81571 351.511265 
z
" clip-path="url(#p2d623c40fc)" style="fill: #ff7f0e"/>
   </g>
   <g id="patch_24">
    <path d="M 645.109064 489.127422 
L 651.2384 489.127422 
L 651.2384 42.257113 
L 645.109064 42.257113 
z
" clip-path="url(#p2d623c40fc)" style="fill: #ff7f0e"/>
   </g>
   <g id="patch_25">
    <path d="M 706.402418 489.127422 
L 712.531753 489.127422 
L 712.531753 451.858081 
L 706.402418 451.858081 
z
" clip-path="url(#p2d623c40fc)" style="fill: #ff7f0e"/>
   </g>
   <g id="patch_26">
    <path d="M 767.695772 489.127422 
L 773.825107 489.127422 
L 773.825107 381.148077 
L 767.695772 381.148077 
z
" clip-path="url(#p2d623c40fc)" style="fill: #ff7f0e"/>
   </g>
   <g id="patch_27">
    <path d="M 99.598216 489.127422 
L 105.727552 489.127422 
L 105.727552 420.400528 
L 99.598216 420.400528 
z
" clip-path="url(#p2d623c40fc)" style="fill: #2ca02c"/>
   </g>
   <g id="patch_28">
    <path d="M 160.89157 489.127422 
L 167.020905 489.127422 
L 167.020905 439.167845 
L 160.89157 439.167845 
z
" clip-path="url(#p2d623c40fc)" style="fill: #2ca02c"/>
   </g>
   <g id="patch_29">
    <path d="M 222.184924 489.127422 
L 228.314259 489.127422 
L 228.314259 455.684243 
L 222.184924 455.684243 
z
" clip-path="url(#p2d623c40fc)" style="fill: #2ca02c"/>
   </g>
   <g id="patch_30">
    <path d="M 283.478277 489.127422 
L 289.607613 489.127422 
L 289.607613 468.454074 
L 283.478277 468.454074 
z
" clip-path="url(#p2d623c40fc)" style="fill: #2ca02c"/>
   </g>
   <g id="patch_31">
    <path d="M 344.771631 489.127422 
L 350.900966 489.127422 
L 350.900966 474.583961 
L 344.771631 474.583961 
z
" clip-path="url(#p2d623c40fc)" style="fill: #2ca02c"/>
   </g>
   <g id="patch_32">
    <path d="M 406.064985 489.127422 
L 412.19432 489.127422 
L 412.19432 471.431554 
L 406.064985 471.431554 
z
" clip-path="url(#p2d623c40fc)" style="fill: #2ca02c"/>
   </g>
   <g id="patch_33">
    <path d="M 467.358338 489.127422 
L 473.487674 489.127422 
L 473.487674 452.887016 
L 467.358338 452.887016 
z
" clip-path="url(#p2d623c40fc)" style="fill: #2ca02c"/>
   </g>
   <g id="patch_34">
    <path d="M 528.651692 489.127422 
L 534.781028 489.127422 
L 534.781028 387.405205 
L 528.651692 387.405205 
z
" clip-path="url(#p2d623c40fc)" style="fill: #2ca02c"/>
   </g>
   <g id="patch_35">
    <path d="M 589.945046 489.127422 
L 596.074381 489.127422 
L 596.074381 351.367781 
L 589.945046 351.367781 
z
" clip-path="url(#p2d623c40fc)" style="fill: #2ca02c"/>
   </g>
   <g id="patch_36">
    <path d="M 651.2384 489.127422 
L 657.367735 489.127422 
L 657.367735 42.524487 
L 651.2384 42.524487 
z
" clip-path="url(#p2d623c40fc)" style="fill: #2ca02c"/>
   </g>
   <g id="patch_37">
    <path d="M 712.531753 489.127422 
L 718.661089 489.127422 
L 718.661089 451.503645 
L 712.531753 451.503645 
z
" clip-path="url(#p2d623c40fc)" style="fill: #2ca02c"/>
   </g>
   <g id="patch_38">
    <path d="M 773.825107 489.127422 
L 779.954442 489.127422 
L 779.954442 380.720296 
L 773.825107 380.720296 
z
" clip-path="url(#p2d623c40fc)" style="fill: #2ca02c"/>
   </g>
   <g id="patch_39">
    <path d="M 105.727552 489.127422 
L 111.856887 489.127422 
L 111.856887 419.960659 
L 105.727552 419.960659 
z
" clip-path="url(#p2d623c40fc)" style="fill: #d62728"/>
   </g>
   <g id="patch_40">
    <path d="M 167.020905 489.127422 
L 173.150241 489.127422 
L 173.150241 438.094804 
L 167.020905 438.094804 
z
" clip-path="url(#p2d623c40fc)" style="fill: #d62728"/>
   </g>
   <g id="patch_41">
    <path d="M 228.314259 489.127422 
L 234.443594 489.127422 
L 234.443594 455.199324 
L 228.314259 455.199324 
z
" clip-path="url(#p2d623c40fc)" style="fill: #d62728"/>
   </g>
   <g id="patch_42">
    <path d="M 289.607613 489.127422 
L 295.736948 489.127422 
L 295.736948 467.747194 
L 289.607613 467.747194 
z
" clip-path="url(#p2d623c40fc)" style="fill: #d62728"/>
   </g>
   <g id="patch_43">
    <path d="M 350.900966 489.127422 
L 357.030302 489.127422 
L 357.030302 474.122379 
L 350.900966 474.122379 
z
" clip-path="url(#p2d623c40fc)" style="fill: #d62728"/>
   </g>
   <g id="patch_44">
    <path d="M 412.19432 489.127422 
L 418.323655 489.127422 
L 418.323655 470.813426 
L 412.19432 470.813426 
z
" clip-path="url(#p2d623c40fc)" style="fill: #d62728"/>
   </g>
   <g id="patch_45">
    <path d="M 473.487674 489.127422 
L 479.617009 489.127422 
L 479.617009 452.225532 
L 473.487674 452.225532 
z
" clip-path="url(#p2d623c40fc)" style="fill: #d62728"/>
   </g>
   <g id="patch_46">
    <path d="M 534.781028 489.127422 
L 540.910363 489.127422 
L 540.910363 386.288201 
L 534.781028 386.288201 
z
" clip-path="url(#p2d623c40fc)" style="fill: #d62728"/>
   </g>
   <g id="patch_47">
    <path d="M 596.074381 489.127422 
L 602.203717 489.127422 
L 602.203717 350.767103 
L 596.074381 350.767103 
z
" clip-path="url(#p2d623c40fc)" style="fill: #d62728"/>
   </g>
   <g id="patch_48">
    <path d="M 657.367735 489.127422 
L 663.49707 489.127422 
L 663.49707 42.318681 
L 657.367735 42.318681 
z
" clip-path="url(#p2d623c40fc)" style="fill: #d62728"/>
   </g>
   <g id="patch_49">
    <path d="M 718.661089 489.127422 
L 724.790424 489.127422 
L 724.790424 451.232428 
L 718.661089 451.232428 
z
" clip-path="url(#p2d623c40fc)" style="fill: #d62728"/>
   </g>
   <g id="patch_50">
    <path d="M 779.954442 489.127422 
L 786.083778 489.127422 
L 786.083778 379.775381 
L 779.954442 379.775381 
z
" clip-path="url(#p2d623c40fc)" style="fill: #d62728"/>
   </g>
   <g id="patch_51">
    <path d="M 111.856887 489.127422 
L 117.986222 489.127422 
L 117.986222 418.899867 
L 111.856887 418.899867 
z
" clip-path="url(#p2d623c40fc)" style="fill: #9467bd"/>
   </g>
   <g id="patch_52">
    <path d="M 173.150241 489.127422 
L 179.279576 489.127422 
L 179.279576 437.583359 
L 173.150241 437.583359 
z
" clip-path="url(#p2d623c40fc)" style="fill: #9467bd"/>
   </g>
   <g id="patch_53">
    <path d="M 234.443594 489.127422 
L 240.57293 489.127422 
L 240.57293 454.587298 
L 234.443594 454.587298 
z
" clip-path="url(#p2d623c40fc)" style="fill: #9467bd"/>
   </g>
   <g id="patch_54">
    <path d="M 295.736948 489.127422 
L 301.866283 489.127422 
L 301.866283 467.664376 
L 295.736948 467.664376 
z
" clip-path="url(#p2d623c40fc)" style="fill: #9467bd"/>
   </g>
   <g id="patch_55">
    <path d="M 357.030302 489.127422 
L 363.159637 489.127422 
L 363.159637 473.419128 
L 357.030302 473.419128 
z
" clip-path="url(#p2d623c40fc)" style="fill: #9467bd"/>
   </g>
   <g id="patch_56">
    <path d="M 418.323655 489.127422 
L 424.452991 489.127422 
L 424.452991 470.352036 
L 418.323655 470.352036 
z
" clip-path="url(#p2d623c40fc)" style="fill: #9467bd"/>
   </g>
   <g id="patch_57">
    <path d="M 479.617009 489.127422 
L 485.746345 489.127422 
L 485.746345 451.645123 
L 479.617009 451.645123 
z
" clip-path="url(#p2d623c40fc)" style="fill: #9467bd"/>
   </g>
   <g id="patch_58">
    <path d="M 540.910363 489.127422 
L 547.039698 489.127422 
L 547.039698 386.176227 
L 540.910363 386.176227 
z
" clip-path="url(#p2d623c40fc)" style="fill: #9467bd"/>
   </g>
   <g id="patch_59">
    <path d="M 602.203717 489.127422 
L 608.333052 489.127422 
L 608.333052 349.948815 
L 602.203717 349.948815 
z
" clip-path="url(#p2d623c40fc)" style="fill: #9467bd"/>
   </g>
   <g id="patch_60">
    <path d="M 663.49707 489.127422 
L 669.626406 489.127422 
L 669.626406 42.328586 
L 663.49707 42.328586 
z
" clip-path="url(#p2d623c40fc)" style="fill: #9467bd"/>
   </g>
   <g id="patch_61">
    <path d="M 724.790424 489.127422 
L 730.919759 489.127422 
L 730.919759 450.608543 
L 724.790424 450.608543 
z
" clip-path="url(#p2d623c40fc)" style="fill: #9467bd"/>
   </g>
   <g id="patch_62">
    <path d="M 786.083778 489.127422 
L 792.213113 489.127422 
L 792.213113 378.950533 
L 786.083778 378.950533 
z
" clip-path="url(#p2d623c40fc)" style="fill: #9467bd"/>
   </g>
   <g id="patch_63">
    <path d="M 117.986222 489.127422 
L 124.115558 489.127422 
L 124.115558 418.925659 
L 117.986222 418.925659 
z
" clip-path="url(#p2d623c40fc)" style="fill: #8c564b"/>
   </g>
   <g id="patch_64">
    <path d="M 179.279576 489.127422 
L 185.408911 489.127422 
L 185.408911 437.625164 
L 179.279576 437.625164 
z
" clip-path="url(#p2d623c40fc)" style="fill: #8c564b"/>
   </g>
   <g id="patch_65">
    <path d="M 240.57293 489.127422 
L 246.702265 489.127422 
L 246.702265 454.227222 
L 240.57293 454.227222 
z
" clip-path="url(#p2d623c40fc)" style="fill: #8c564b"/>
   </g>
   <g id="patch_66">
    <path d="M 301.866283 489.127422 
L 307.995619 489.127422 
L 307.995619 467.392022 
L 301.866283 467.392022 
z
" clip-path="url(#p2d623c40fc)" style="fill: #8c564b"/>
   </g>
   <g id="patch_67">
    <path d="M 363.159637 489.127422 
L 369.288972 489.127422 
L 369.288972 473.239232 
L 363.159637 473.239232 
z
" clip-path="url(#p2d623c40fc)" style="fill: #8c564b"/>
   </g>
   <g id="patch_68">
    <path d="M 424.452991 489.127422 
L 430.582326 489.127422 
L 430.582326 469.999597 
L 424.452991 469.999597 
z
" clip-path="url(#p2d623c40fc)" style="fill: #8c564b"/>
   </g>
   <g id="patch_69">
    <path d="M 485.746345 489.127422 
L 491.87568 489.127422 
L 491.87568 451.263274 
L 485.746345 451.263274 
z
" clip-path="url(#p2d623c40fc)" style="fill: #8c564b"/>
   </g>
   <g id="patch_70">
    <path d="M 547.039698 489.127422 
L 553.169034 489.127422 
L 553.169034 385.30671 
L 547.039698 385.30671 
z
" clip-path="url(#p2d623c40fc)" style="fill: #8c564b"/>
   </g>
   <g id="patch_71">
    <path d="M 608.333052 489.127422 
L 614.462387 489.127422 
L 614.462387 349.896143 
L 608.333052 349.896143 
z
" clip-path="url(#p2d623c40fc)" style="fill: #8c564b"/>
   </g>
   <g id="patch_72">
    <path d="M 669.626406 489.127422 
L 675.755741 489.127422 
L 675.755741 41.021794 
L 669.626406 41.021794 
z
" clip-path="url(#p2d623c40fc)" style="fill: #8c564b"/>
   </g>
   <g id="patch_73">
    <path d="M 730.919759 489.127422 
L 737.049095 489.127422 
L 737.049095 450.301026 
L 730.919759 450.301026 
z
" clip-path="url(#p2d623c40fc)" style="fill: #8c564b"/>
   </g>
   <g id="patch_74">
    <path d="M 792.213113 489.127422 
L 798.342448 489.127422 
L 798.342448 378.508857 
L 792.213113 378.508857 
z
" clip-path="url(#p2d623c40fc)" style="fill: #8c564b"/>
   </g>
   <g id="patch_75">
    <path d="M 124.115558 489.127422 
L 130.244893 489.127422 
L 130.244893 417.405343 
L 124.115558 417.405343 
z
" clip-path="url(#p2d623c40fc)" style="fill: #e377c2"/>
   </g>
   <g id="patch_76">
    <path d="M 185.408911 489.127422 
L 191.538247 489.127422 
L 191.538247 436.105244 
L 185.408911 436.105244 
z
" clip-path="url(#p2d623c40fc)" style="fill: #e377c2"/>
   </g>
   <g id="patch_77">
    <path d="M 246.702265 489.127422 
L 252.8316 489.127422 
L 252.8316 452.586596 
L 246.702265 452.586596 
z
" clip-path="url(#p2d623c40fc)" style="fill: #e377c2"/>
   </g>
   <g id="patch_78">
    <path d="M 307.995619 489.127422 
L 314.124954 489.127422 
L 314.124954 465.600634 
L 307.995619 465.600634 
z
" clip-path="url(#p2d623c40fc)" style="fill: #e377c2"/>
   </g>
   <g id="patch_79">
    <path d="M 369.288972 489.127422 
L 375.418308 489.127422 
L 375.418308 471.454359 
L 369.288972 471.454359 
z
" clip-path="url(#p2d623c40fc)" style="fill: #e377c2"/>
   </g>
   <g id="patch_80">
    <path d="M 430.582326 489.127422 
L 436.711662 489.127422 
L 436.711662 468.324796 
L 430.582326 468.324796 
z
" clip-path="url(#p2d623c40fc)" style="fill: #e377c2"/>
   </g>
   <g id="patch_81">
    <path d="M 491.87568 489.127422 
L 498.005015 489.127422 
L 498.005015 449.705946 
L 491.87568 449.705946 
z
" clip-path="url(#p2d623c40fc)" style="fill: #e377c2"/>
   </g>
   <g id="patch_82">
    <path d="M 553.169034 489.127422 
L 559.298369 489.127422 
L 559.298369 384.204029 
L 553.169034 384.204029 
z
" clip-path="url(#p2d623c40fc)" style="fill: #e377c2"/>
   </g>
   <g id="patch_83">
    <path d="M 614.462387 489.127422 
L 620.591723 489.127422 
L 620.591723 348.588867 
L 614.462387 348.588867 
z
" clip-path="url(#p2d623c40fc)" style="fill: #e377c2"/>
   </g>
   <g id="patch_84">
    <path d="M 675.755741 489.127422 
L 681.885076 489.127422 
L 681.885076 38.604031 
L 675.755741 38.604031 
z
" clip-path="url(#p2d623c40fc)" style="fill: #e377c2"/>
   </g>
   <g id="patch_85">
    <path d="M 737.049095 489.127422 
L 743.17843 489.127422 
L 743.17843 448.491983 
L 737.049095 448.491983 
z
" clip-path="url(#p2d623c40fc)" style="fill: #e377c2"/>
   </g>
   <g id="patch_86">
    <path d="M 798.342448 489.127422 
L 804.471784 489.127422 
L 804.471784 375.637568 
L 798.342448 375.637568 
z
" clip-path="url(#p2d623c40fc)" style="fill: #e377c2"/>
   </g>
   <g id="patch_87">
    <path d="M 130.244893 489.127422 
L 136.374228 489.127422 
L 136.374228 415.979933 
L 130.244893 415.979933 
z
" clip-path="url(#p2d623c40fc)" style="fill: #7f7f7f"/>
   </g>
   <g id="patch_88">
    <path d="M 191.538247 489.127422 
L 197.667582 489.127422 
L 197.667582 434.653632 
L 191.538247 434.653632 
z
" clip-path="url(#p2d623c40fc)" style="fill: #7f7f7f"/>
   </g>
   <g id="patch_89">
    <path d="M 252.8316 489.127422 
L 258.960936 489.127422 
L 258.960936 451.05216 
L 252.8316 451.05216 
z
" clip-path="url(#p2d623c40fc)" style="fill: #7f7f7f"/>
   </g>
   <g id="patch_90">
    <path d="M 314.124954 489.127422 
L 320.25429 489.127422 
L 320.25429 464.002039 
L 314.124954 464.002039 
z
" clip-path="url(#p2d623c40fc)" style="fill: #7f7f7f"/>
   </g>
   <g id="patch_91">
    <path d="M 375.418308 489.127422 
L 381.547643 489.127422 
L 381.547643 469.867817 
L 375.418308 469.867817 
z
" clip-path="url(#p2d623c40fc)" style="fill: #7f7f7f"/>
   </g>
   <g id="patch_92">
    <path d="M 436.711662 489.127422 
L 442.840997 489.127422 
L 442.840997 466.818668 
L 436.711662 466.818668 
z
" clip-path="url(#p2d623c40fc)" style="fill: #7f7f7f"/>
   </g>
   <g id="patch_93">
    <path d="M 498.005015 489.127422 
L 504.134351 489.127422 
L 504.134351 448.02637 
L 498.005015 448.02637 
z
" clip-path="url(#p2d623c40fc)" style="fill: #7f7f7f"/>
   </g>
   <g id="patch_94">
    <path d="M 559.298369 489.127422 
L 565.427704 489.127422 
L 565.427704 381.951583 
L 559.298369 381.951583 
z
" clip-path="url(#p2d623c40fc)" style="fill: #7f7f7f"/>
   </g>
   <g id="patch_95">
    <path d="M 620.591723 489.127422 
L 626.721058 489.127422 
L 626.721058 346.18204 
L 620.591723 346.18204 
z
" clip-path="url(#p2d623c40fc)" style="fill: #7f7f7f"/>
   </g>
   <g id="patch_96">
    <path d="M 681.885076 489.127422 
L 688.014412 489.127422 
L 688.014412 35.645217 
L 681.885076 35.645217 
z
" clip-path="url(#p2d623c40fc)" style="fill: #7f7f7f"/>
   </g>
   <g id="patch_97">
    <path d="M 743.17843 489.127422 
L 749.307765 489.127422 
L 749.307765 447.137868 
L 743.17843 447.137868 
z
" clip-path="url(#p2d623c40fc)" style="fill: #7f7f7f"/>
   </g>
   <g id="patch_98">
    <path d="M 804.471784 489.127422 
L 810.601119 489.127422 
L 810.601119 373.00908 
L 804.471784 373.00908 
z
" clip-path="url(#p2d623c40fc)" style="fill: #7f7f7f"/>
   </g>
   <g id="patch_99">
    <path d="M 136.374228 489.127422 
L 142.503564 489.127422 
L 142.503564 414.30345 
L 136.374228 414.30345 
z
" clip-path="url(#p2d623c40fc)" style="fill: #bcbd22"/>
   </g>
   <g id="patch_100">
    <path d="M 197.667582 489.127422 
L 203.796917 489.127422 
L 203.796917 433.026678 
L 197.667582 433.026678 
z
" clip-path="url(#p2d623c40fc)" style="fill: #bcbd22"/>
   </g>
   <g id="patch_101">
    <path d="M 258.960936 489.127422 
L 265.090271 489.127422 
L 265.090271 449.666077 
L 258.960936 449.666077 
z
" clip-path="url(#p2d623c40fc)" style="fill: #bcbd22"/>
   </g>
   <g id="patch_102">
    <path d="M 320.25429 489.127422 
L 326.383625 489.127422 
L 326.383625 462.494236 
L 320.25429 462.494236 
z
" clip-path="url(#p2d623c40fc)" style="fill: #bcbd22"/>
   </g>
   <g id="patch_103">
    <path d="M 381.547643 489.127422 
L 387.676979 489.127422 
L 387.676979 468.389347 
L 381.547643 468.389347 
z
" clip-path="url(#p2d623c40fc)" style="fill: #bcbd22"/>
   </g>
   <g id="patch_104">
    <path d="M 442.840997 489.127422 
L 448.970332 489.127422 
L 448.970332 465.116848 
L 442.840997 465.116848 
z
" clip-path="url(#p2d623c40fc)" style="fill: #bcbd22"/>
   </g>
   <g id="patch_105">
    <path d="M 504.134351 489.127422 
L 510.263686 489.127422 
L 510.263686 446.673083 
L 504.134351 446.673083 
z
" clip-path="url(#p2d623c40fc)" style="fill: #bcbd22"/>
   </g>
   <g id="patch_106">
    <path d="M 565.427704 489.127422 
L 571.55704 489.127422 
L 571.55704 381.055779 
L 565.427704 381.055779 
z
" clip-path="url(#p2d623c40fc)" style="fill: #bcbd22"/>
   </g>
   <g id="patch_107">
    <path d="M 626.721058 489.127422 
L 632.850393 489.127422 
L 632.850393 345.064711 
L 626.721058 345.064711 
z
" clip-path="url(#p2d623c40fc)" style="fill: #bcbd22"/>
   </g>
   <g id="patch_108">
    <path d="M 688.014412 489.127422 
L 694.143747 489.127422 
L 694.143747 33.577496 
L 688.014412 33.577496 
z
" clip-path="url(#p2d623c40fc)" style="fill: #bcbd22"/>
   </g>
   <g id="patch_109">
    <path d="M 749.307765 489.127422 
L 755.437101 489.127422 
L 755.437101 445.199855 
L 749.307765 445.199855 
z
" clip-path="url(#p2d623c40fc)" style="fill: #bcbd22"/>
   </g>
   <g id="patch_110">
    <path d="M 810.601119 489.127422 
L 816.730455 489.127422 
L 816.730455 370.97464 
L 810.601119 370.97464 
z
" clip-path="url(#p2d623c40fc)" style="fill: #bcbd22"/>
   </g>
   <g id="matplotlib.axis_1">
    <g id="xtick_1">
     <g id="line2d_1">
      <defs>
       <path id="mb2221e0c4b" d="M 0 0 
L 0 3.5 
" style="stroke: #000000; stroke-width: 0.8"/>
      </defs>
      <g>
       <use xlink:href="#mb2221e0c4b" x="114.921555" y="489.127422" style="stroke: #000000; stroke-width: 0.8"/>
      </g>
     </g>
     <g id="text_1">
      <!-- resnet152 -->
      <g transform="translate(77.567534 537.383788) rotate(-45) scale(0.1 -0.1)">
       <defs>
        <path id="DejaVuSans-72" d="M 2631 2963 
Q 2534 3019 2420 3045 
Q 2306 3072 2169 3072 
Q 1681 3072 1420 2755 
Q 1159 2438 1159 1844 
L 1159 0 
L 581 0 
L 581 3500 
L 1159 3500 
L 1159 2956 
Q 1341 3275 1631 3429 
Q 1922 3584 2338 3584 
Q 2397 3584 2469 3576 
Q 2541 3569 2628 3553 
L 2631 2963 
z
" transform="scale(0.015625)"/>
        <path id="DejaVuSans-65" d="M 3597 1894 
L 3597 1613 
L 953 1613 
Q 991 1019 1311 708 
Q 1631 397 2203 397 
Q 2534 397 2845 478 
Q 3156 559 3463 722 
L 3463 178 
Q 3153 47 2828 -22 
Q 2503 -91 2169 -91 
Q 1331 -91 842 396 
Q 353 884 353 1716 
Q 353 2575 817 3079 
Q 1281 3584 2069 3584 
Q 2775 3584 3186 3129 
Q 3597 2675 3597 1894 
z
M 3022 2063 
Q 3016 2534 2758 2815 
Q 2500 3097 2075 3097 
Q 1594 3097 1305 2825 
Q 1016 2553 972 2059 
L 3022 2063 
z
" transform="scale(0.015625)"/>
        <path id="DejaVuSans-73" d="M 2834 3397 
L 2834 2853 
Q 2591 2978 2328 3040 
Q 2066 3103 1784 3103 
Q 1356 3103 1142 2972 
Q 928 2841 928 2578 
Q 928 2378 1081 2264 
Q 1234 2150 1697 2047 
L 1894 2003 
Q 2506 1872 2764 1633 
Q 3022 1394 3022 966 
Q 3022 478 2636 193 
Q 2250 -91 1575 -91 
Q 1294 -91 989 -36 
Q 684 19 347 128 
L 347 722 
Q 666 556 975 473 
Q 1284 391 1588 391 
Q 1994 391 2212 530 
Q 2431 669 2431 922 
Q 2431 1156 2273 1281 
Q 2116 1406 1581 1522 
L 1381 1569 
Q 847 1681 609 1914 
Q 372 2147 372 2553 
Q 372 3047 722 3315 
Q 1072 3584 1716 3584 
Q 2034 3584 2315 3537 
Q 2597 3491 2834 3397 
z
" transform="scale(0.015625)"/>
        <path id="DejaVuSans-6e" d="M 3513 2113 
L 3513 0 
L 2938 0 
L 2938 2094 
Q 2938 2591 2744 2837 
Q 2550 3084 2163 3084 
Q 1697 3084 1428 2787 
Q 1159 2491 1159 1978 
L 1159 0 
L 581 0 
L 581 3500 
L 1159 3500 
L 1159 2956 
Q 1366 3272 1645 3428 
Q 1925 3584 2291 3584 
Q 2894 3584 3203 3211 
Q 3513 2838 3513 2113 
z
" transform="scale(0.015625)"/>
        <path id="DejaVuSans-74" d="M 1172 4494 
L 1172 3500 
L 2356 3500 
L 2356 3053 
L 1172 3053 
L 1172 1153 
Q 1172 725 1289 603 
Q 1406 481 1766 481 
L 2356 481 
L 2356 0 
L 1766 0 
Q 1100 0 847 248 
Q 594 497 594 1153 
L 594 3053 
L 172 3053 
L 172 3500 
L 594 3500 
L 594 4494 
L 1172 4494 
z
" transform="scale(0.015625)"/>
        <path id="DejaVuSans-31" d="M 794 531 
L 1825 531 
L 1825 4091 
L 703 3866 
L 703 4441 
L 1819 4666 
L 2450 4666 
L 2450 531 
L 3481 531 
L 3481 0 
L 794 0 
L 794 531 
z
" transform="scale(0.015625)"/>
        <path id="DejaVuSans-35" d="M 691 4666 
L 3169 4666 
L 3169 4134 
L 1269 4134 
L 1269 2991 
Q 1406 3038 1543 3061 
Q 1681 3084 1819 3084 
Q 2600 3084 3056 2656 
Q 3513 2228 3513 1497 
Q 3513 744 3044 326 
Q 2575 -91 1722 -91 
Q 1428 -91 1123 -41 
Q 819 9 494 109 
L 494 744 
Q 775 591 1075 516 
Q 1375 441 1709 441 
Q 2250 441 2565 725 
Q 2881 1009 2881 1497 
Q 2881 1984 2565 2268 
Q 2250 2553 1709 2553 
Q 1456 2553 1204 2497 
Q 953 2441 691 2322 
L 691 4666 
z
" transform="scale(0.015625)"/>
        <path id="DejaVuSans-32" d="M 1228 531 
L 3431 531 
L 3431 0 
L 469 0 
L 469 531 
Q 828 903 1448 1529 
Q 2069 2156 2228 2338 
Q 2531 2678 2651 2914 
Q 2772 3150 2772 3378 
Q 2772 3750 2511 3984 
Q 2250 4219 1831 4219 
Q 1534 4219 1204 4116 
Q 875 4013 500 3803 
L 500 4441 
Q 881 4594 1212 4672 
Q 1544 4750 1819 4750 
Q 2544 4750 2975 4387 
Q 3406 4025 3406 3419 
Q 3406 3131 3298 2873 
Q 3191 2616 2906 2266 
Q 2828 2175 2409 1742 
Q 1991 1309 1228 531 
z
" transform="scale(0.015625)"/>
       </defs>
       <use xlink:href="#DejaVuSans-72"/>
       <use xlink:href="#DejaVuSans-65" x="38.863281"/>
       <use xlink:href="#DejaVuSans-73" x="100.386719"/>
       <use xlink:href="#DejaVuSans-6e" x="152.486328"/>
       <use xlink:href="#DejaVuSans-65" x="215.865234"/>
       <use xlink:href="#DejaVuSans-74" x="277.388672"/>
       <use xlink:href="#DejaVuSans-31" x="316.597656"/>
       <use xlink:href="#DejaVuSans-35" x="380.220703"/>
       <use xlink:href="#DejaVuSans-32" x="443.84375"/>
      </g>
     </g>
    </g>
    <g id="xtick_2">
     <g id="line2d_2">
      <g>
       <use xlink:href="#mb2221e0c4b" x="176.214908" y="489.127422" style="stroke: #000000; stroke-width: 0.8"/>
      </g>
     </g>
     <g id="text_2">
      <!-- resnet101 -->
      <g transform="translate(138.860888 537.383788) rotate(-45) scale(0.1 -0.1)">
       <defs>
        <path id="DejaVuSans-30" d="M 2034 4250 
Q 1547 4250 1301 3770 
Q 1056 3291 1056 2328 
Q 1056 1369 1301 889 
Q 1547 409 2034 409 
Q 2525 409 2770 889 
Q 3016 1369 3016 2328 
Q 3016 3291 2770 3770 
Q 2525 4250 2034 4250 
z
M 2034 4750 
Q 2819 4750 3233 4129 
Q 3647 3509 3647 2328 
Q 3647 1150 3233 529 
Q 2819 -91 2034 -91 
Q 1250 -91 836 529 
Q 422 1150 422 2328 
Q 422 3509 836 4129 
Q 1250 4750 2034 4750 
z
" transform="scale(0.015625)"/>
       </defs>
       <use xlink:href="#DejaVuSans-72"/>
       <use xlink:href="#DejaVuSans-65" x="38.863281"/>
       <use xlink:href="#DejaVuSans-73" x="100.386719"/>
       <use xlink:href="#DejaVuSans-6e" x="152.486328"/>
       <use xlink:href="#DejaVuSans-65" x="215.865234"/>
       <use xlink:href="#DejaVuSans-74" x="277.388672"/>
       <use xlink:href="#DejaVuSans-31" x="316.597656"/>
       <use xlink:href="#DejaVuSans-30" x="380.220703"/>
       <use xlink:href="#DejaVuSans-31" x="443.84375"/>
      </g>
     </g>
    </g>
    <g id="xtick_3">
     <g id="line2d_3">
      <g>
       <use xlink:href="#mb2221e0c4b" x="237.508262" y="489.127422" style="stroke: #000000; stroke-width: 0.8"/>
      </g>
     </g>
     <g id="text_3">
      <!-- resnet50 -->
      <g transform="translate(204.653208 532.884821) rotate(-45) scale(0.1 -0.1)">
       <use xlink:href="#DejaVuSans-72"/>
       <use xlink:href="#DejaVuSans-65" x="38.863281"/>
       <use xlink:href="#DejaVuSans-73" x="100.386719"/>
       <use xlink:href="#DejaVuSans-6e" x="152.486328"/>
       <use xlink:href="#DejaVuSans-65" x="215.865234"/>
       <use xlink:href="#DejaVuSans-74" x="277.388672"/>
       <use xlink:href="#DejaVuSans-35" x="316.597656"/>
       <use xlink:href="#DejaVuSans-30" x="380.220703"/>
      </g>
     </g>
    </g>
    <g id="xtick_4">
     <g id="line2d_4">
      <g>
       <use xlink:href="#mb2221e0c4b" x="298.801616" y="489.127422" style="stroke: #000000; stroke-width: 0.8"/>
      </g>
     </g>
     <g id="text_4">
      <!-- resnet34 -->
      <g transform="translate(265.946562 532.884821) rotate(-45) scale(0.1 -0.1)">
       <defs>
        <path id="DejaVuSans-33" d="M 2597 2516 
Q 3050 2419 3304 2112 
Q 3559 1806 3559 1356 
Q 3559 666 3084 287 
Q 2609 -91 1734 -91 
Q 1441 -91 1130 -33 
Q 819 25 488 141 
L 488 750 
Q 750 597 1062 519 
Q 1375 441 1716 441 
Q 2309 441 2620 675 
Q 2931 909 2931 1356 
Q 2931 1769 2642 2001 
Q 2353 2234 1838 2234 
L 1294 2234 
L 1294 2753 
L 1863 2753 
Q 2328 2753 2575 2939 
Q 2822 3125 2822 3475 
Q 2822 3834 2567 4026 
Q 2313 4219 1838 4219 
Q 1578 4219 1281 4162 
Q 984 4106 628 3988 
L 628 4550 
Q 988 4650 1302 4700 
Q 1616 4750 1894 4750 
Q 2613 4750 3031 4423 
Q 3450 4097 3450 3541 
Q 3450 3153 3228 2886 
Q 3006 2619 2597 2516 
z
" transform="scale(0.015625)"/>
        <path id="DejaVuSans-34" d="M 2419 4116 
L 825 1625 
L 2419 1625 
L 2419 4116 
z
M 2253 4666 
L 3047 4666 
L 3047 1625 
L 3713 1625 
L 3713 1100 
L 3047 1100 
L 3047 0 
L 2419 0 
L 2419 1100 
L 313 1100 
L 313 1709 
L 2253 4666 
z
" transform="scale(0.015625)"/>
       </defs>
       <use xlink:href="#DejaVuSans-72"/>
       <use xlink:href="#DejaVuSans-65" x="38.863281"/>
       <use xlink:href="#DejaVuSans-73" x="100.386719"/>
       <use xlink:href="#DejaVuSans-6e" x="152.486328"/>
       <use xlink:href="#DejaVuSans-65" x="215.865234"/>
       <use xlink:href="#DejaVuSans-74" x="277.388672"/>
       <use xlink:href="#DejaVuSans-33" x="316.597656"/>
       <use xlink:href="#DejaVuSans-34" x="380.220703"/>
      </g>
     </g>
    </g>
    <g id="xtick_5">
     <g id="line2d_5">
      <g>
       <use xlink:href="#mb2221e0c4b" x="360.094969" y="489.127422" style="stroke: #000000; stroke-width: 0.8"/>
      </g>
     </g>
     <g id="text_5">
      <!-- resnet18 -->
      <g transform="translate(327.239916 532.884821) rotate(-45) scale(0.1 -0.1)">
       <defs>
        <path id="DejaVuSans-38" d="M 2034 2216 
Q 1584 2216 1326 1975 
Q 1069 1734 1069 1313 
Q 1069 891 1326 650 
Q 1584 409 2034 409 
Q 2484 409 2743 651 
Q 3003 894 3003 1313 
Q 3003 1734 2745 1975 
Q 2488 2216 2034 2216 
z
M 1403 2484 
Q 997 2584 770 2862 
Q 544 3141 544 3541 
Q 544 4100 942 4425 
Q 1341 4750 2034 4750 
Q 2731 4750 3128 4425 
Q 3525 4100 3525 3541 
Q 3525 3141 3298 2862 
Q 3072 2584 2669 2484 
Q 3125 2378 3379 2068 
Q 3634 1759 3634 1313 
Q 3634 634 3220 271 
Q 2806 -91 2034 -91 
Q 1263 -91 848 271 
Q 434 634 434 1313 
Q 434 1759 690 2068 
Q 947 2378 1403 2484 
z
M 1172 3481 
Q 1172 3119 1398 2916 
Q 1625 2713 2034 2713 
Q 2441 2713 2670 2916 
Q 2900 3119 2900 3481 
Q 2900 3844 2670 4047 
Q 2441 4250 2034 4250 
Q 1625 4250 1398 4047 
Q 1172 3844 1172 3481 
z
" transform="scale(0.015625)"/>
       </defs>
       <use xlink:href="#DejaVuSans-72"/>
       <use xlink:href="#DejaVuSans-65" x="38.863281"/>
       <use xlink:href="#DejaVuSans-73" x="100.386719"/>
       <use xlink:href="#DejaVuSans-6e" x="152.486328"/>
       <use xlink:href="#DejaVuSans-65" x="215.865234"/>
       <use xlink:href="#DejaVuSans-74" x="277.388672"/>
       <use xlink:href="#DejaVuSans-31" x="316.597656"/>
       <use xlink:href="#DejaVuSans-38" x="380.220703"/>
      </g>
     </g>
    </g>
    <g id="xtick_6">
     <g id="line2d_6">
      <g>
       <use xlink:href="#mb2221e0c4b" x="421.388323" y="489.127422" style="stroke: #000000; stroke-width: 0.8"/>
      </g>
     </g>
     <g id="text_6">
      <!-- mobilenet_v2 -->
      <g transform="translate(371.91405 549.307376) rotate(-45) scale(0.1 -0.1)">
       <defs>
        <path id="DejaVuSans-6d" d="M 3328 2828 
Q 3544 3216 3844 3400 
Q 4144 3584 4550 3584 
Q 5097 3584 5394 3201 
Q 5691 2819 5691 2113 
L 5691 0 
L 5113 0 
L 5113 2094 
Q 5113 2597 4934 2840 
Q 4756 3084 4391 3084 
Q 3944 3084 3684 2787 
Q 3425 2491 3425 1978 
L 3425 0 
L 2847 0 
L 2847 2094 
Q 2847 2600 2669 2842 
Q 2491 3084 2119 3084 
Q 1678 3084 1418 2786 
Q 1159 2488 1159 1978 
L 1159 0 
L 581 0 
L 581 3500 
L 1159 3500 
L 1159 2956 
Q 1356 3278 1631 3431 
Q 1906 3584 2284 3584 
Q 2666 3584 2933 3390 
Q 3200 3197 3328 2828 
z
" transform="scale(0.015625)"/>
        <path id="DejaVuSans-6f" d="M 1959 3097 
Q 1497 3097 1228 2736 
Q 959 2375 959 1747 
Q 959 1119 1226 758 
Q 1494 397 1959 397 
Q 2419 397 2687 759 
Q 2956 1122 2956 1747 
Q 2956 2369 2687 2733 
Q 2419 3097 1959 3097 
z
M 1959 3584 
Q 2709 3584 3137 3096 
Q 3566 2609 3566 1747 
Q 3566 888 3137 398 
Q 2709 -91 1959 -91 
Q 1206 -91 779 398 
Q 353 888 353 1747 
Q 353 2609 779 3096 
Q 1206 3584 1959 3584 
z
" transform="scale(0.015625)"/>
        <path id="DejaVuSans-62" d="M 3116 1747 
Q 3116 2381 2855 2742 
Q 2594 3103 2138 3103 
Q 1681 3103 1420 2742 
Q 1159 2381 1159 1747 
Q 1159 1113 1420 752 
Q 1681 391 2138 391 
Q 2594 391 2855 752 
Q 3116 1113 3116 1747 
z
M 1159 2969 
Q 1341 3281 1617 3432 
Q 1894 3584 2278 3584 
Q 2916 3584 3314 3078 
Q 3713 2572 3713 1747 
Q 3713 922 3314 415 
Q 2916 -91 2278 -91 
Q 1894 -91 1617 61 
Q 1341 213 1159 525 
L 1159 0 
L 581 0 
L 581 4863 
L 1159 4863 
L 1159 2969 
z
" transform="scale(0.015625)"/>
        <path id="DejaVuSans-69" d="M 603 3500 
L 1178 3500 
L 1178 0 
L 603 0 
L 603 3500 
z
M 603 4863 
L 1178 4863 
L 1178 4134 
L 603 4134 
L 603 4863 
z
" transform="scale(0.015625)"/>
        <path id="DejaVuSans-6c" d="M 603 4863 
L 1178 4863 
L 1178 0 
L 603 0 
L 603 4863 
z
" transform="scale(0.015625)"/>
        <path id="DejaVuSans-5f" d="M 3263 -1063 
L 3263 -1509 
L -63 -1509 
L -63 -1063 
L 3263 -1063 
z
" transform="scale(0.015625)"/>
        <path id="DejaVuSans-76" d="M 191 3500 
L 800 3500 
L 1894 563 
L 2988 3500 
L 3597 3500 
L 2284 0 
L 1503 0 
L 191 3500 
z
" transform="scale(0.015625)"/>
       </defs>
       <use xlink:href="#DejaVuSans-6d"/>
       <use xlink:href="#DejaVuSans-6f" x="97.412109"/>
       <use xlink:href="#DejaVuSans-62" x="158.59375"/>
       <use xlink:href="#DejaVuSans-69" x="222.070312"/>
       <use xlink:href="#DejaVuSans-6c" x="249.853516"/>
       <use xlink:href="#DejaVuSans-65" x="277.636719"/>
       <use xlink:href="#DejaVuSans-6e" x="339.160156"/>
       <use xlink:href="#DejaVuSans-65" x="402.539062"/>
       <use xlink:href="#DejaVuSans-74" x="464.0625"/>
       <use xlink:href="#DejaVuSans-5f" x="503.271484"/>
       <use xlink:href="#DejaVuSans-76" x="553.271484"/>
       <use xlink:href="#DejaVuSans-32" x="612.451172"/>
      </g>
     </g>
    </g>
    <g id="xtick_7">
     <g id="line2d_7">
      <g>
       <use xlink:href="#mb2221e0c4b" x="482.681677" y="489.127422" style="stroke: #000000; stroke-width: 0.8"/>
      </g>
     </g>
     <g id="text_7">
      <!-- eff_net_v2_s -->
      <g transform="translate(437.106435 545.408345) rotate(-45) scale(0.1 -0.1)">
       <defs>
        <path id="DejaVuSans-66" d="M 2375 4863 
L 2375 4384 
L 1825 4384 
Q 1516 4384 1395 4259 
Q 1275 4134 1275 3809 
L 1275 3500 
L 2222 3500 
L 2222 3053 
L 1275 3053 
L 1275 0 
L 697 0 
L 697 3053 
L 147 3053 
L 147 3500 
L 697 3500 
L 697 3744 
Q 697 4328 969 4595 
Q 1241 4863 1831 4863 
L 2375 4863 
z
" transform="scale(0.015625)"/>
       </defs>
       <use xlink:href="#DejaVuSans-65"/>
       <use xlink:href="#DejaVuSans-66" x="61.523438"/>
       <use xlink:href="#DejaVuSans-66" x="96.728516"/>
       <use xlink:href="#DejaVuSans-5f" x="131.933594"/>
       <use xlink:href="#DejaVuSans-6e" x="181.933594"/>
       <use xlink:href="#DejaVuSans-65" x="245.3125"/>
       <use xlink:href="#DejaVuSans-74" x="306.835938"/>
       <use xlink:href="#DejaVuSans-5f" x="346.044922"/>
       <use xlink:href="#DejaVuSans-76" x="396.044922"/>
       <use xlink:href="#DejaVuSans-32" x="455.224609"/>
       <use xlink:href="#DejaVuSans-5f" x="518.847656"/>
       <use xlink:href="#DejaVuSans-73" x="568.847656"/>
      </g>
     </g>
    </g>
    <g id="xtick_8">
     <g id="line2d_8">
      <g>
       <use xlink:href="#mb2221e0c4b" x="543.975031" y="489.127422" style="stroke: #000000; stroke-width: 0.8"/>
      </g>
     </g>
     <g id="text_8">
      <!-- eff_net_v2_l -->
      <g transform="translate(500.118942 543.689192) rotate(-45) scale(0.1 -0.1)">
       <use xlink:href="#DejaVuSans-65"/>
       <use xlink:href="#DejaVuSans-66" x="61.523438"/>
       <use xlink:href="#DejaVuSans-66" x="96.728516"/>
       <use xlink:href="#DejaVuSans-5f" x="131.933594"/>
       <use xlink:href="#DejaVuSans-6e" x="181.933594"/>
       <use xlink:href="#DejaVuSans-65" x="245.3125"/>
       <use xlink:href="#DejaVuSans-74" x="306.835938"/>
       <use xlink:href="#DejaVuSans-5f" x="346.044922"/>
       <use xlink:href="#DejaVuSans-76" x="396.044922"/>
       <use xlink:href="#DejaVuSans-32" x="455.224609"/>
       <use xlink:href="#DejaVuSans-5f" x="518.847656"/>
       <use xlink:href="#DejaVuSans-6c" x="568.847656"/>
      </g>
     </g>
    </g>
    <g id="xtick_9">
     <g id="line2d_9">
      <g>
       <use xlink:href="#mb2221e0c4b" x="605.268384" y="489.127422" style="stroke: #000000; stroke-width: 0.8"/>
      </g>
     </g>
     <g id="text_9">
      <!-- vit_b_16 -->
      <g transform="translate(574.121435 530.980052) rotate(-45) scale(0.1 -0.1)">
       <defs>
        <path id="DejaVuSans-36" d="M 2113 2584 
Q 1688 2584 1439 2293 
Q 1191 2003 1191 1497 
Q 1191 994 1439 701 
Q 1688 409 2113 409 
Q 2538 409 2786 701 
Q 3034 994 3034 1497 
Q 3034 2003 2786 2293 
Q 2538 2584 2113 2584 
z
M 3366 4563 
L 3366 3988 
Q 3128 4100 2886 4159 
Q 2644 4219 2406 4219 
Q 1781 4219 1451 3797 
Q 1122 3375 1075 2522 
Q 1259 2794 1537 2939 
Q 1816 3084 2150 3084 
Q 2853 3084 3261 2657 
Q 3669 2231 3669 1497 
Q 3669 778 3244 343 
Q 2819 -91 2113 -91 
Q 1303 -91 875 529 
Q 447 1150 447 2328 
Q 447 3434 972 4092 
Q 1497 4750 2381 4750 
Q 2619 4750 2861 4703 
Q 3103 4656 3366 4563 
z
" transform="scale(0.015625)"/>
       </defs>
       <use xlink:href="#DejaVuSans-76"/>
       <use xlink:href="#DejaVuSans-69" x="59.179688"/>
       <use xlink:href="#DejaVuSans-74" x="86.962891"/>
       <use xlink:href="#DejaVuSans-5f" x="126.171875"/>
       <use xlink:href="#DejaVuSans-62" x="176.171875"/>
       <use xlink:href="#DejaVuSans-5f" x="239.648438"/>
       <use xlink:href="#DejaVuSans-31" x="289.648438"/>
       <use xlink:href="#DejaVuSans-36" x="353.271484"/>
      </g>
     </g>
    </g>
    <g id="xtick_10">
     <g id="line2d_10">
      <g>
       <use xlink:href="#mb2221e0c4b" x="666.561738" y="489.127422" style="stroke: #000000; stroke-width: 0.8"/>
      </g>
     </g>
     <g id="text_10">
      <!-- vit_l_16 -->
      <g transform="translate(637.939381 528.45546) rotate(-45) scale(0.1 -0.1)">
       <use xlink:href="#DejaVuSans-76"/>
       <use xlink:href="#DejaVuSans-69" x="59.179688"/>
       <use xlink:href="#DejaVuSans-74" x="86.962891"/>
       <use xlink:href="#DejaVuSans-5f" x="126.171875"/>
       <use xlink:href="#DejaVuSans-6c" x="176.171875"/>
       <use xlink:href="#DejaVuSans-5f" x="203.955078"/>
       <use xlink:href="#DejaVuSans-31" x="253.955078"/>
       <use xlink:href="#DejaVuSans-36" x="317.578125"/>
      </g>
     </g>
    </g>
    <g id="xtick_11">
     <g id="line2d_11">
      <g>
       <use xlink:href="#mb2221e0c4b" x="727.855092" y="489.127422" style="stroke: #000000; stroke-width: 0.8"/>
      </g>
     </g>
     <g id="text_11">
      <!-- vit_b_32 -->
      <g transform="translate(696.708143 530.980052) rotate(-45) scale(0.1 -0.1)">
       <use xlink:href="#DejaVuSans-76"/>
       <use xlink:href="#DejaVuSans-69" x="59.179688"/>
       <use xlink:href="#DejaVuSans-74" x="86.962891"/>
       <use xlink:href="#DejaVuSans-5f" x="126.171875"/>
       <use xlink:href="#DejaVuSans-62" x="176.171875"/>
       <use xlink:href="#DejaVuSans-5f" x="239.648438"/>
       <use xlink:href="#DejaVuSans-33" x="289.648438"/>
       <use xlink:href="#DejaVuSans-32" x="353.271484"/>
      </g>
     </g>
    </g>
    <g id="xtick_12">
     <g id="line2d_12">
      <g>
       <use xlink:href="#mb2221e0c4b" x="789.148445" y="489.127422" style="stroke: #000000; stroke-width: 0.8"/>
      </g>
     </g>
     <g id="text_12">
      <!-- vit_l_32 -->
      <g transform="translate(760.526089 528.45546) rotate(-45) scale(0.1 -0.1)">
       <use xlink:href="#DejaVuSans-76"/>
       <use xlink:href="#DejaVuSans-69" x="59.179688"/>
       <use xlink:href="#DejaVuSans-74" x="86.962891"/>
       <use xlink:href="#DejaVuSans-5f" x="126.171875"/>
       <use xlink:href="#DejaVuSans-6c" x="176.171875"/>
       <use xlink:href="#DejaVuSans-5f" x="203.955078"/>
       <use xlink:href="#DejaVuSans-33" x="253.955078"/>
       <use xlink:href="#DejaVuSans-32" x="317.578125"/>
      </g>
     </g>
    </g>
    <g id="text_13">
     <!-- model architectures -->
     <g transform="translate(402.023281 562.573039) scale(0.1 -0.1)">
      <defs>
       <path id="DejaVuSans-64" d="M 2906 2969 
L 2906 4863 
L 3481 4863 
L 3481 0 
L 2906 0 
L 2906 525 
Q 2725 213 2448 61 
Q 2172 -91 1784 -91 
Q 1150 -91 751 415 
Q 353 922 353 1747 
Q 353 2572 751 3078 
Q 1150 3584 1784 3584 
Q 2172 3584 2448 3432 
Q 2725 3281 2906 2969 
z
M 947 1747 
Q 947 1113 1208 752 
Q 1469 391 1925 391 
Q 2381 391 2643 752 
Q 2906 1113 2906 1747 
Q 2906 2381 2643 2742 
Q 2381 3103 1925 3103 
Q 1469 3103 1208 2742 
Q 947 2381 947 1747 
z
" transform="scale(0.015625)"/>
       <path id="DejaVuSans-20" transform="scale(0.015625)"/>
       <path id="DejaVuSans-61" d="M 2194 1759 
Q 1497 1759 1228 1600 
Q 959 1441 959 1056 
Q 959 750 1161 570 
Q 1363 391 1709 391 
Q 2188 391 2477 730 
Q 2766 1069 2766 1631 
L 2766 1759 
L 2194 1759 
z
M 3341 1997 
L 3341 0 
L 2766 0 
L 2766 531 
Q 2569 213 2275 61 
Q 1981 -91 1556 -91 
Q 1019 -91 701 211 
Q 384 513 384 1019 
Q 384 1609 779 1909 
Q 1175 2209 1959 2209 
L 2766 2209 
L 2766 2266 
Q 2766 2663 2505 2880 
Q 2244 3097 1772 3097 
Q 1472 3097 1187 3025 
Q 903 2953 641 2809 
L 641 3341 
Q 956 3463 1253 3523 
Q 1550 3584 1831 3584 
Q 2591 3584 2966 3190 
Q 3341 2797 3341 1997 
z
" transform="scale(0.015625)"/>
       <path id="DejaVuSans-63" d="M 3122 3366 
L 3122 2828 
Q 2878 2963 2633 3030 
Q 2388 3097 2138 3097 
Q 1578 3097 1268 2742 
Q 959 2388 959 1747 
Q 959 1106 1268 751 
Q 1578 397 2138 397 
Q 2388 397 2633 464 
Q 2878 531 3122 666 
L 3122 134 
Q 2881 22 2623 -34 
Q 2366 -91 2075 -91 
Q 1284 -91 818 406 
Q 353 903 353 1747 
Q 353 2603 823 3093 
Q 1294 3584 2113 3584 
Q 2378 3584 2631 3529 
Q 2884 3475 3122 3366 
z
" transform="scale(0.015625)"/>
       <path id="DejaVuSans-68" d="M 3513 2113 
L 3513 0 
L 2938 0 
L 2938 2094 
Q 2938 2591 2744 2837 
Q 2550 3084 2163 3084 
Q 1697 3084 1428 2787 
Q 1159 2491 1159 1978 
L 1159 0 
L 581 0 
L 581 4863 
L 1159 4863 
L 1159 2956 
Q 1366 3272 1645 3428 
Q 1925 3584 2291 3584 
Q 2894 3584 3203 3211 
Q 3513 2838 3513 2113 
z
" transform="scale(0.015625)"/>
       <path id="DejaVuSans-75" d="M 544 1381 
L 544 3500 
L 1119 3500 
L 1119 1403 
Q 1119 906 1312 657 
Q 1506 409 1894 409 
Q 2359 409 2629 706 
Q 2900 1003 2900 1516 
L 2900 3500 
L 3475 3500 
L 3475 0 
L 2900 0 
L 2900 538 
Q 2691 219 2414 64 
Q 2138 -91 1772 -91 
Q 1169 -91 856 284 
Q 544 659 544 1381 
z
M 1991 3584 
L 1991 3584 
z
" transform="scale(0.015625)"/>
      </defs>
      <use xlink:href="#DejaVuSans-6d"/>
      <use xlink:href="#DejaVuSans-6f" x="97.412109"/>
      <use xlink:href="#DejaVuSans-64" x="158.59375"/>
      <use xlink:href="#DejaVuSans-65" x="222.070312"/>
      <use xlink:href="#DejaVuSans-6c" x="283.59375"/>
      <use xlink:href="#DejaVuSans-20" x="311.376953"/>
      <use xlink:href="#DejaVuSans-61" x="343.164062"/>
      <use xlink:href="#DejaVuSans-72" x="404.443359"/>
      <use xlink:href="#DejaVuSans-63" x="443.306641"/>
      <use xlink:href="#DejaVuSans-68" x="498.287109"/>
      <use xlink:href="#DejaVuSans-69" x="561.666016"/>
      <use xlink:href="#DejaVuSans-74" x="589.449219"/>
      <use xlink:href="#DejaVuSans-65" x="628.658203"/>
      <use xlink:href="#DejaVuSans-63" x="690.181641"/>
      <use xlink:href="#DejaVuSans-74" x="745.162109"/>
      <use xlink:href="#DejaVuSans-75" x="784.371094"/>
      <use xlink:href="#DejaVuSans-72" x="847.75"/>
      <use xlink:href="#DejaVuSans-65" x="886.613281"/>
      <use xlink:href="#DejaVuSans-73" x="948.136719"/>
     </g>
    </g>
   </g>
   <g id="matplotlib.axis_2">
    <g id="ytick_1">
     <g id="line2d_13">
      <defs>
       <path id="m2fb6653a83" d="M 0 0 
L -3.5 0 
" style="stroke: #000000; stroke-width: 0.8"/>
      </defs>
      <g>
       <use xlink:href="#m2fb6653a83" x="50.87" y="489.127422" style="stroke: #000000; stroke-width: 0.8"/>
      </g>
     </g>
     <g id="text_14">
      <!-- 0 -->
      <g transform="translate(37.5075 492.92664) scale(0.1 -0.1)">
       <use xlink:href="#DejaVuSans-30"/>
      </g>
     </g>
    </g>
    <g id="ytick_2">
     <g id="line2d_14">
      <g>
       <use xlink:href="#m2fb6653a83" x="50.87" y="397.224378" style="stroke: #000000; stroke-width: 0.8"/>
      </g>
     </g>
     <g id="text_15">
      <!-- 20 -->
      <g transform="translate(31.145 401.023597) scale(0.1 -0.1)">
       <use xlink:href="#DejaVuSans-32"/>
       <use xlink:href="#DejaVuSans-30" x="63.623047"/>
      </g>
     </g>
    </g>
    <g id="ytick_3">
     <g id="line2d_15">
      <g>
       <use xlink:href="#m2fb6653a83" x="50.87" y="305.321335" style="stroke: #000000; stroke-width: 0.8"/>
      </g>
     </g>
     <g id="text_16">
      <!-- 40 -->
      <g transform="translate(31.145 309.120554) scale(0.1 -0.1)">
       <use xlink:href="#DejaVuSans-34"/>
       <use xlink:href="#DejaVuSans-30" x="63.623047"/>
      </g>
     </g>
    </g>
    <g id="ytick_4">
     <g id="line2d_16">
      <g>
       <use xlink:href="#m2fb6653a83" x="50.87" y="213.418292" style="stroke: #000000; stroke-width: 0.8"/>
      </g>
     </g>
     <g id="text_17">
      <!-- 60 -->
      <g transform="translate(31.145 217.21751) scale(0.1 -0.1)">
       <use xlink:href="#DejaVuSans-36"/>
       <use xlink:href="#DejaVuSans-30" x="63.623047"/>
      </g>
     </g>
    </g>
    <g id="ytick_5">
     <g id="line2d_17">
      <g>
       <use xlink:href="#m2fb6653a83" x="50.87" y="121.515248" style="stroke: #000000; stroke-width: 0.8"/>
      </g>
     </g>
     <g id="text_18">
      <!-- 80 -->
      <g transform="translate(31.145 125.314467) scale(0.1 -0.1)">
       <use xlink:href="#DejaVuSans-38"/>
       <use xlink:href="#DejaVuSans-30" x="63.623047"/>
      </g>
     </g>
    </g>
    <g id="ytick_6">
     <g id="line2d_18">
      <g>
       <use xlink:href="#m2fb6653a83" x="50.87" y="29.612205" style="stroke: #000000; stroke-width: 0.8"/>
      </g>
     </g>
     <g id="text_19">
      <!-- 100 -->
      <g transform="translate(24.7825 33.411424) scale(0.1 -0.1)">
       <use xlink:href="#DejaVuSans-31"/>
       <use xlink:href="#DejaVuSans-30" x="63.623047"/>
       <use xlink:href="#DejaVuSans-30" x="127.246094"/>
      </g>
     </g>
    </g>
    <g id="text_20">
     <!-- Time in seconds -->
     <g transform="translate(18.702813 290.370742) rotate(-90) scale(0.1 -0.1)">
      <defs>
       <path id="DejaVuSans-54" d="M -19 4666 
L 3928 4666 
L 3928 4134 
L 2272 4134 
L 2272 0 
L 1638 0 
L 1638 4134 
L -19 4134 
L -19 4666 
z
" transform="scale(0.015625)"/>
      </defs>
      <use xlink:href="#DejaVuSans-54"/>
      <use xlink:href="#DejaVuSans-69" x="57.958984"/>
      <use xlink:href="#DejaVuSans-6d" x="85.742188"/>
      <use xlink:href="#DejaVuSans-65" x="183.154297"/>
      <use xlink:href="#DejaVuSans-20" x="244.677734"/>
      <use xlink:href="#DejaVuSans-69" x="276.464844"/>
      <use xlink:href="#DejaVuSans-6e" x="304.248047"/>
      <use xlink:href="#DejaVuSans-20" x="367.626953"/>
      <use xlink:href="#DejaVuSans-73" x="399.414062"/>
      <use xlink:href="#DejaVuSans-65" x="451.513672"/>
      <use xlink:href="#DejaVuSans-63" x="513.037109"/>
      <use xlink:href="#DejaVuSans-6f" x="568.017578"/>
      <use xlink:href="#DejaVuSans-6e" x="629.199219"/>
      <use xlink:href="#DejaVuSans-64" x="692.578125"/>
      <use xlink:href="#DejaVuSans-73" x="756.054688"/>
     </g>
    </g>
   </g>
   <g id="patch_111">
    <path d="M 50.87 489.127422 
L 50.87 10.8 
" style="fill: none; stroke: #000000; stroke-width: 0.8; stroke-linejoin: miter; stroke-linecap: square"/>
   </g>
   <g id="patch_112">
    <path d="M 853.2 489.127422 
L 853.2 10.8 
" style="fill: none; stroke: #000000; stroke-width: 0.8; stroke-linejoin: miter; stroke-linecap: square"/>
   </g>
   <g id="patch_113">
    <path d="M 50.87 489.127422 
L 853.2 489.127422 
" style="fill: none; stroke: #000000; stroke-width: 0.8; stroke-linejoin: miter; stroke-linecap: square"/>
   </g>
   <g id="patch_114">
    <path d="M 50.87 10.8 
L 853.2 10.8 
" style="fill: none; stroke: #000000; stroke-width: 0.8; stroke-linejoin: miter; stroke-linecap: square"/>
   </g>
   <g id="legend_1">
    <g id="patch_115">
     <path d="M 801.475 150.903125 
L 846.2 150.903125 
Q 848.2 150.903125 848.2 148.903125 
L 848.2 17.8 
Q 848.2 15.8 846.2 15.8 
L 801.475 15.8 
Q 799.475 15.8 799.475 17.8 
L 799.475 148.903125 
Q 799.475 150.903125 801.475 150.903125 
z
" style="fill: #ffffff; opacity: 0.8; stroke: #cccccc; stroke-linejoin: miter"/>
    </g>
    <g id="patch_116">
     <path d="M 803.475 27.398438 
L 823.475 27.398438 
L 823.475 20.398438 
L 803.475 20.398438 
z
" style="fill: #1f77b4"/>
    </g>
    <g id="text_21">
     <!-- 1 -->
     <g transform="translate(831.475 27.398438) scale(0.1 -0.1)">
      <use xlink:href="#DejaVuSans-31"/>
     </g>
    </g>
    <g id="patch_117">
     <path d="M 803.475 42.076563 
L 823.475 42.076563 
L 823.475 35.076563 
L 803.475 35.076563 
z
" style="fill: #ff7f0e"/>
    </g>
    <g id="text_22">
     <!-- 2 -->
     <g transform="translate(831.475 42.076563) scale(0.1 -0.1)">
      <use xlink:href="#DejaVuSans-32"/>
     </g>
    </g>
    <g id="patch_118">
     <path d="M 803.475 56.754688 
L 823.475 56.754688 
L 823.475 49.754688 
L 803.475 49.754688 
z
" style="fill: #2ca02c"/>
    </g>
    <g id="text_23">
     <!-- 4 -->
     <g transform="translate(831.475 56.754688) scale(0.1 -0.1)">
      <use xlink:href="#DejaVuSans-34"/>
     </g>
    </g>
    <g id="patch_119">
     <path d="M 803.475 71.432813 
L 823.475 71.432813 
L 823.475 64.432813 
L 803.475 64.432813 
z
" style="fill: #d62728"/>
    </g>
    <g id="text_24">
     <!-- 8 -->
     <g transform="translate(831.475 71.432813) scale(0.1 -0.1)">
      <use xlink:href="#DejaVuSans-38"/>
     </g>
    </g>
    <g id="patch_120">
     <path d="M 803.475 86.110938 
L 823.475 86.110938 
L 823.475 79.110938 
L 803.475 79.110938 
z
" style="fill: #9467bd"/>
    </g>
    <g id="text_25">
     <!-- 12 -->
     <g transform="translate(831.475 86.110938) scale(0.1 -0.1)">
      <use xlink:href="#DejaVuSans-31"/>
      <use xlink:href="#DejaVuSans-32" x="63.623047"/>
     </g>
    </g>
    <g id="patch_121">
     <path d="M 803.475 100.789063 
L 823.475 100.789063 
L 823.475 93.789063 
L 803.475 93.789063 
z
" style="fill: #8c564b"/>
    </g>
    <g id="text_26">
     <!-- 16 -->
     <g transform="translate(831.475 100.789063) scale(0.1 -0.1)">
      <use xlink:href="#DejaVuSans-31"/>
      <use xlink:href="#DejaVuSans-36" x="63.623047"/>
     </g>
    </g>
    <g id="patch_122">
     <path d="M 803.475 115.467188 
L 823.475 115.467188 
L 823.475 108.467188 
L 803.475 108.467188 
z
" style="fill: #e377c2"/>
    </g>
    <g id="text_27">
     <!-- 32 -->
     <g transform="translate(831.475 115.467188) scale(0.1 -0.1)">
      <use xlink:href="#DejaVuSans-33"/>
      <use xlink:href="#DejaVuSans-32" x="63.623047"/>
     </g>
    </g>
    <g id="patch_123">
     <path d="M 803.475 130.145313 
L 823.475 130.145313 
L 823.475 123.145313 
L 803.475 123.145313 
z
" style="fill: #7f7f7f"/>
    </g>
    <g id="text_28">
     <!-- 48 -->
     <g transform="translate(831.475 130.145313) scale(0.1 -0.1)">
      <use xlink:href="#DejaVuSans-34"/>
      <use xlink:href="#DejaVuSans-38" x="63.623047"/>
     </g>
    </g>
    <g id="patch_124">
     <path d="M 803.475 144.823438 
L 823.475 144.823438 
L 823.475 137.823438 
L 803.475 137.823438 
z
" style="fill: #bcbd22"/>
    </g>
    <g id="text_29">
     <!-- 64 -->
     <g transform="translate(831.475 144.823438) scale(0.1 -0.1)">
      <use xlink:href="#DejaVuSans-36"/>
      <use xlink:href="#DejaVuSans-34" x="63.623047"/>
     </g>
    </g>
   </g>
  </g>
 </g>
 <defs>
  <clipPath id="p2d623c40fc">
   <rect x="50.87" y="10.8" width="802.33" height="478.327422"/>
  </clipPath>
 </defs>
</svg>
